<svg width="305" height="45" viewBox="0 0 305 45" fill="none" xmlns="http://www.w3.org/2000/svg">
<path d="M17.6699 35.451L29.254 31.3203L30.4593 32.5707L31.7502 33.8623L24.5585 36.4113L17.6699 38.8933" stroke="#4B382E"/>
<path d="M17.8967 35.451L6.31258 31.3203L5.07298 32.6193L3.81641 33.8623L11.0653 36.3828L17.8967 38.8933" stroke="#4B382E"/>
<path d="M7.41005 31.5325H6.2793V34.8801H7.41005V31.5325Z" fill="#4B382E"/>
<path d="M28.2638 31.5281H29.3945V34.8757H28.2638V31.5281Z" fill="#4B382E"/>
<path d="M8.93935 32.0518H7.80859V35.3994H8.93935V32.0518Z" fill="#4B382E"/>
<path d="M26.7345 32.0474H27.8652V35.395H26.7345V32.0474Z" fill="#4B382E"/>
<path d="M10.4686 32.571H9.33789V35.9187H10.4686V32.571Z" fill="#4B382E"/>
<path d="M25.2052 32.5664H26.3359V35.914H25.2052V32.5664Z" fill="#4B382E"/>
<path d="M12.1659 33.2065H11.0352V36.5542H12.1659V33.2065Z" fill="#4B382E"/>
<path d="M23.5079 33.2019H24.6387V36.5495H23.5079V33.2019Z" fill="#4B382E"/>
<path d="M13.7792 33.8169H12.6484V37.1645H13.7792V33.8169Z" fill="#4B382E"/>
<path d="M21.8927 33.8125H23.0234V37.1601H21.8927V33.8125Z" fill="#4B382E"/>
<path d="M15.3085 34.3362H14.1777V37.6838H15.3085V34.3362Z" fill="#4B382E"/>
<path d="M20.3634 34.3318H21.4941V37.6794H20.3634V34.3318Z" fill="#4B382E"/>
<path d="M16.8397 34.8804H15.709V38.228H16.8397V34.8804Z" fill="#4B382E"/>
<path d="M18.8341 34.8755H19.9648V38.2231H18.8341V34.8755Z" fill="#4B382E"/>
<path d="M17.5878 35.1599H16.457V38.5075H17.5878V35.1599Z" fill="#4B382E"/>
<path d="M18.086 35.1555H19.2168V38.5031H18.086V35.1555Z" fill="#4B382E"/>
<path d="M8.1581 31.9097H7.02734V35.0631H8.1581V31.9097Z" fill="#4B382E"/>
<path d="M27.5157 31.905H28.6465V35.0585H27.5157V31.905Z" fill="#4B382E"/>
<path d="M9.6874 32.4287H8.55664V35.5822H9.6874V32.4287Z" fill="#4B382E"/>
<path d="M25.9864 32.4243H27.1172V35.5778H25.9864V32.4243Z" fill="#4B382E"/>
<path d="M11.2167 32.948H10.0859V36.1711H11.2167V32.948Z" fill="#4B382E"/>
<path d="M24.4571 32.9434H25.5879V36.1665H24.4571V32.9434Z" fill="#4B382E"/>
<path d="M12.914 33.5835H11.7832V36.737H12.914V33.5835Z" fill="#4B382E"/>
<path d="M22.7599 33.5786H23.8906V36.7321H22.7599V33.5786Z" fill="#4B382E"/>
<path d="M14.5272 34.1938H13.3965V37.3473H14.5272V34.1938Z" fill="#4B382E"/>
<path d="M21.1446 34.1438H22.2754V37.343H21.1446V34.1438Z" fill="#4B382E"/>
<path d="M16.0585 34.7131H14.9277V37.8666H16.0585V34.7131Z" fill="#4B382E"/>
<path d="M19.6153 34.7085H20.7461V37.862H19.6153V34.7085Z" fill="#4B382E"/>
<path d="M17.5878 35.2571H16.457V38.4105H17.5878V35.2571Z" fill="#4B382E"/>
<path d="M18.086 35.2524H19.2168V38.4059H18.086V35.2524Z" fill="#4B382E"/>
<path d="M18.3358 35.5371H17.2051V38.6906H18.3358V35.5371Z" fill="#4B382E"/>
<path d="M17.338 35.5327H18.4688V38.6862H17.338V35.5327Z" fill="#4B382E"/>
<path d="M7.02724 31.5999H5.89648V34.6334H7.02724V31.5999Z" fill="#4B382E"/>
<path d="M28.6466 31.595H29.7773V34.6285H28.6466V31.595Z" fill="#4B382E"/>
<path d="M6.62099 32.1021H5.49023V34.3614H6.62099V32.1021Z" fill="#4B382E"/>
<path d="M29.0528 32.0972H30.1836V34.3565H29.0528V32.0972Z" fill="#4B382E"/>
<path d="M6.05654 32.6116H4.92578V34.2H6.05654V32.6116Z" fill="#4B382E"/>
<path d="M29.6173 32.6072H30.748V34.1956H29.6173V32.6072Z" fill="#4B382E"/>
<path d="M5.56281 33.1306H4.58008V34.2H5.56281V33.1306Z" fill="#4B382E"/>
<path d="M30.111 33.126H31.0938V34.1954H30.111V33.126Z" fill="#4B382E"/>
<path d="M5.07062 33.4058H4.08789V34.0402H5.07062V33.4058Z" fill="#4B382E"/>
<path d="M30.6032 33.4014H31.5859V34.0358H30.6032V33.4014Z" fill="#4B382E"/>
<path d="M16.1171 4.54496C16.2998 4.49977 16.4841 4.48978 16.663 4.50991C18.2844 4.5517 19.7781 5.17996 20.8724 6.36553C21.722 7.28605 22.2669 8.47153 22.4848 9.82309C22.8054 9.92557 23.1163 10.0601 23.411 10.2286C24.0504 10.5941 24.6001 11.1037 25.0141 11.7201C25.4281 12.3367 25.6944 13.0428 25.7881 13.7839C25.8259 14.0827 25.8346 14.3834 25.8159 14.6817C26.347 15.1248 26.7932 15.6689 27.125 16.2888C27.493 16.9764 27.7061 17.7321 27.7541 18.5039C28.3841 19.0296 28.8929 19.6948 29.2333 20.4568C29.7155 21.5362 29.8314 22.7442 29.5602 23.8971C29.2892 25.0493 28.6489 26.0745 27.7464 26.8247C26.8446 27.5743 25.7277 28.0112 24.5639 28.0787C24.5341 28.0804 24.5042 28.0813 24.4744 28.0814H11.3186C10.1255 28.0814 8.96044 27.6925 8.00544 26.967C7.0496 26.2409 6.35565 25.2156 6.0436 24.0452C5.73138 22.8741 5.82244 21.6337 6.30007 20.5217C6.64033 19.7296 7.16175 19.039 7.81223 18.4966C7.86038 17.7248 8.0737 16.969 8.44181 16.2815C8.7736 15.6619 9.21965 15.1184 9.75044 14.6754C9.7317 14.3772 9.74044 14.0768 9.77817 13.7782C9.87186 13.0372 10.1379 12.3309 10.5517 11.7143C10.9655 11.0979 11.5152 10.5885 12.1543 10.2228C12.7933 9.85716 13.5064 9.64368 14.238 9.59605L14.3387 9.59289H14.5505C14.7683 9.59289 15.0756 9.46041 15.2819 8.97296C15.4801 8.50437 15.5315 7.75577 15.1118 6.89605C14.9843 6.66425 14.9108 6.39736 14.9108 6.11284V6.10657C14.9108 5.3652 15.4093 4.72007 16.1171 4.54496Z" stroke="#4B382E" stroke-width="4" stroke-linecap="round" stroke-linejoin="round"/>
<path d="M39.498 35.8929V9.00976H48.9123C50.9671 9.00976 52.6695 9.39044 54.0195 10.1517C55.3689 10.9131 56.3795 11.9545 57.05 13.2759C57.7205 14.5885 58.0558 16.0674 58.0558 17.7127C58.0558 19.3666 57.7163 20.8542 57.0368 22.1756C56.3663 23.4883 55.3521 24.5297 53.9937 25.2998C52.6437 26.0611 50.9456 26.4418 48.8994 26.4418H42.4255V23.0026H48.5383C49.8366 23.0026 50.8897 22.7751 51.6979 22.3201C52.506 21.8562 53.0995 21.2262 53.4774 20.4299C53.8558 19.6335 54.0453 18.7278 54.0453 17.7127C54.0453 16.6975 53.8558 15.7962 53.4774 15.0086C53.0995 14.221 52.5018 13.604 51.685 13.1577C50.8768 12.7114 49.8107 12.4883 48.4867 12.4883H43.483V35.8929H39.498ZM68.6979 36.2998C66.8405 36.2998 65.22 35.8666 63.8358 35.0003C62.4516 34.1339 61.3768 32.9219 60.6116 31.3642C59.8468 29.8065 59.4642 27.9863 59.4642 25.9036C59.4642 23.8121 59.8468 21.9832 60.6116 20.4167C61.3768 18.8502 62.4516 17.6339 63.8358 16.7675C65.22 15.9012 66.8405 15.468 68.6979 15.468C70.5547 15.468 72.1753 15.9012 73.5595 16.7675C74.9437 17.6339 76.0184 18.8502 76.7837 20.4167C77.5489 21.9832 77.9316 23.8121 77.9316 25.9036C77.9316 27.9863 77.5489 29.8065 76.7837 31.3642C76.0184 32.9219 74.9437 34.1339 73.5595 35.0003C72.1753 35.8666 70.5547 36.2998 68.6979 36.2998ZM68.7105 33.005C69.9142 33.005 70.9116 32.6813 71.7026 32.0337C72.4937 31.3861 73.0779 30.5241 73.4563 29.4477C73.8432 28.3714 74.0368 27.1856 74.0368 25.8904C74.0368 24.6041 73.8432 23.4227 73.4563 22.3463C73.0779 21.2612 72.4937 20.3904 71.7026 19.7341C70.9116 19.0778 69.9142 18.7496 68.7105 18.7496C67.4984 18.7496 66.4926 19.0778 65.6932 19.7341C64.9021 20.3904 64.3132 21.2612 63.9263 22.3463C63.5479 23.4227 63.3584 24.6041 63.3584 25.8904C63.3584 27.1856 63.5479 28.3714 63.9263 29.4477C64.3132 30.5241 64.9021 31.3861 65.6932 32.0337C66.4926 32.6813 67.4984 33.005 68.7105 33.005ZM88.7637 36.2998C86.9063 36.2998 85.2858 35.8666 83.9016 35.0003C82.5174 34.1339 81.4426 32.9219 80.6779 31.3642C79.9126 29.8065 79.53 27.9863 79.53 25.9036C79.53 23.8121 79.9126 21.9832 80.6779 20.4167C81.4426 18.8502 82.5174 17.6339 83.9016 16.7675C85.2858 15.9012 86.9063 15.468 88.7637 15.468C90.6205 15.468 92.241 15.9012 93.6253 16.7675C95.0095 17.6339 96.0842 18.8502 96.8495 20.4167C97.6147 21.9832 97.9974 23.8121 97.9974 25.9036C97.9974 27.9863 97.6147 29.8065 96.8495 31.3642C96.0842 32.9219 95.0095 34.1339 93.6253 35.0003C92.241 35.8666 90.6205 36.2998 88.7637 36.2998ZM88.7763 33.005C89.98 33.005 90.9774 32.6813 91.7684 32.0337C92.5595 31.3861 93.1442 30.5241 93.5221 29.4477C93.9095 28.3714 94.1026 27.1856 94.1026 25.8904C94.1026 24.6041 93.9095 23.4227 93.5221 22.3463C93.1442 21.2612 92.5595 20.3904 91.7684 19.7341C90.9774 19.0778 89.98 18.7496 88.7763 18.7496C87.5642 18.7496 86.5584 19.0778 85.7589 19.7341C84.9679 20.3904 84.3789 21.2612 83.9921 22.3463C83.6137 23.4227 83.4247 24.6041 83.4247 25.8904C83.4247 27.1856 83.6137 28.3714 83.9921 29.4477C84.3789 30.5241 84.9679 31.3861 85.7589 32.0337C86.5584 32.6813 87.5642 33.005 88.7763 33.005ZM104.342 9.00976V35.8929H100.486V9.00976H104.342ZM113.478 36.3392C112.223 36.3392 111.088 36.1029 110.073 35.6303C109.059 35.149 108.255 34.4534 107.662 33.5432C107.077 32.6331 106.785 31.5174 106.785 30.196C106.785 29.0583 107 28.122 107.429 27.3869C107.859 26.6518 108.44 26.0699 109.171 25.6411C109.902 25.2123 110.718 24.8885 111.621 24.6697C112.524 24.4509 113.444 24.2846 114.381 24.1709C115.567 24.0309 116.53 23.9171 117.269 23.8296C118.009 23.7333 118.546 23.5802 118.882 23.3702C119.217 23.1601 119.384 22.8189 119.384 22.3463V22.2544C119.384 21.108 119.066 20.2198 118.43 19.5897C117.803 18.9596 116.865 18.6446 115.619 18.6446C114.321 18.6446 113.297 18.9378 112.549 19.5241C111.81 20.1017 111.298 20.7449 111.015 21.4537L107.391 20.6136C107.821 19.3885 108.448 18.3996 109.274 17.647C110.108 16.8857 111.066 16.3344 112.149 15.9931C113.233 15.643 114.372 15.468 115.567 15.468C116.358 15.468 117.196 15.5643 118.082 15.7568C118.976 15.9406 119.81 16.2819 120.584 16.7807C121.366 17.2795 122.007 17.9927 122.505 18.9203C123.004 19.8391 123.253 21.0337 123.253 22.5038V35.8929H119.487V33.1363H119.333C119.084 33.6438 118.709 34.1427 118.211 34.6327C117.712 35.1228 117.072 35.5297 116.289 35.8535C115.507 36.1773 114.57 36.3392 113.478 36.3392ZM114.316 33.1888C115.382 33.1888 116.294 32.9744 117.05 32.5456C117.815 32.1168 118.396 31.5567 118.791 30.8654C119.195 30.1653 119.397 29.4171 119.397 28.6208V26.0217C119.26 26.1617 118.993 26.293 118.598 26.4155C118.211 26.5293 117.768 26.6299 117.269 26.7174C116.771 26.7962 116.285 26.8706 115.812 26.9406C115.339 27.0018 114.944 27.0543 114.626 27.0981C113.878 27.1944 113.194 27.3563 112.575 27.5838C111.965 27.8113 111.475 28.1395 111.105 28.5683C110.744 28.9883 110.563 29.5484 110.563 30.2485C110.563 31.2198 110.916 31.9549 111.621 32.4537C112.326 32.9438 113.224 33.1888 114.316 33.1888ZM130.429 23.9215V35.8929H126.574V15.7305H130.275V19.0121H130.519C130.975 17.9445 131.689 17.0869 132.661 16.4394C133.641 15.7918 134.874 15.468 136.362 15.468C137.712 15.468 138.894 15.7568 139.908 16.3344C140.923 16.9032 141.709 17.752 142.268 18.8809C142.827 20.0098 143.106 21.4055 143.106 23.0682V35.8929H139.251V23.5408C139.251 22.0794 138.876 20.9374 138.128 20.1148C137.381 19.2834 136.353 18.8678 135.046 18.8678C134.152 18.8678 133.357 19.0647 132.661 19.4584C131.973 19.8522 131.427 20.4299 131.023 21.1912C130.627 21.9437 130.429 22.8539 130.429 23.9215ZM155.708 15.7305V18.8809H144.888V15.7305H155.708ZM147.791 10.9H151.646V29.9728C151.646 30.7342 151.758 31.3073 151.982 31.6924C152.205 32.0687 152.493 32.3268 152.846 32.4669C153.207 32.5981 153.598 32.6637 154.019 32.6637C154.329 32.6637 154.599 32.6419 154.832 32.5981C155.064 32.5544 155.244 32.5194 155.373 32.4931L156.069 35.7354C155.846 35.8229 155.528 35.9104 155.115 35.9979C154.703 36.0941 154.187 36.1466 153.568 36.1554C152.553 36.1729 151.607 35.9891 150.731 35.6041C149.854 35.219 149.144 34.624 148.603 33.8189C148.061 33.0138 147.791 32.003 147.791 30.7867V10.9ZM158.158 35.8929V15.7305H162.014V35.8929H158.158ZM160.106 12.6196C159.435 12.6196 158.859 12.392 158.377 11.937C157.905 11.4731 157.668 10.9218 157.668 10.283C157.668 9.63542 157.905 9.08412 158.377 8.62908C158.859 8.16526 159.435 7.93335 160.106 7.93335C160.776 7.93335 161.348 8.16526 161.821 8.62908C162.302 9.08412 162.543 9.63542 162.543 10.283C162.543 10.9218 162.302 11.4731 161.821 11.937C161.348 12.392 160.776 12.6196 160.106 12.6196ZM165.386 35.8929V15.7305H169.113V18.9334H169.319C169.681 17.8483 170.317 16.9951 171.228 16.3737C172.148 15.7436 173.188 15.4286 174.349 15.4286C174.589 15.4286 174.873 15.4374 175.2 15.4549C175.535 15.4724 175.797 15.4943 175.987 15.5205V19.2747C175.832 19.2309 175.557 19.1828 175.161 19.1303C174.766 19.069 174.371 19.0384 173.975 19.0384C173.064 19.0384 172.251 19.2353 171.537 19.6291C170.833 20.0141 170.274 20.5523 169.861 21.2437C169.448 21.9263 169.242 22.7051 169.242 23.5802V35.8929H165.386Z" fill="#4B382E"/>
<path d="M162.784 7.8374H157.455V13.2387H162.784V7.8374Z" fill="#F3F3F3"/>
<path d="M162.013 8.97852H158.158V13.4377H162.013V8.97852Z" fill="#4B382E"/>
<path d="M151.969 10.8974L151.404 9.30981L147.021 10.9248L147.586 12.5124L151.969 10.8974Z" fill="#F3F3F3"/>
<path d="M196.844 22.8876C196.748 21.916 196.319 21.1433 195.557 20.5694C194.796 19.9956 193.839 19.7086 192.685 19.7086C191.873 19.7086 191.157 19.8478 190.537 20.1262C189.924 20.4047 189.441 20.791 189.089 21.2853C188.742 21.774 188.569 22.3308 188.569 22.9558C188.569 23.416 188.668 23.8194 188.867 24.166C189.066 24.5126 189.333 24.8109 189.668 25.0609C190.009 25.3052 190.384 25.5154 190.793 25.6916C191.208 25.8677 191.626 26.0154 192.046 26.1348L193.887 26.6632C194.444 26.8166 195.001 27.0126 195.557 27.2512C196.114 27.4899 196.623 27.791 197.083 28.1547C197.549 28.5126 197.921 28.9529 198.199 29.4757C198.483 29.9927 198.626 30.6149 198.626 31.3422C198.626 32.274 198.384 33.112 197.901 33.8564C197.418 34.6007 196.725 35.1916 195.822 35.6291C194.918 36.0609 193.836 36.2768 192.574 36.2768C191.387 36.2768 190.356 36.0808 189.481 35.6887C188.606 35.291 187.918 34.7427 187.418 34.0439C186.918 33.345 186.637 32.5353 186.574 31.6149H188.211C188.268 32.3024 188.495 32.8848 188.893 33.362C189.29 33.8393 189.807 34.2029 190.444 34.4529C191.08 34.6973 191.79 34.8194 192.574 34.8194C193.444 34.8194 194.216 34.6745 194.893 34.3848C195.574 34.0893 196.108 33.6802 196.495 33.1575C196.887 32.6291 197.083 32.0154 197.083 31.3166C197.083 30.7257 196.93 30.2314 196.623 29.8336C196.316 29.4302 195.887 29.0922 195.336 28.8194C194.79 28.5467 194.157 28.3052 193.435 28.095L191.347 27.4814C189.978 27.0723 188.915 26.5069 188.16 25.7853C187.404 25.0637 187.026 24.1433 187.026 23.024C187.026 22.0865 187.276 21.2626 187.776 20.5524C188.282 19.8365 188.964 19.2797 189.822 18.8819C190.685 18.4785 191.654 18.2768 192.728 18.2768C193.813 18.2768 194.773 18.4757 195.608 18.8734C196.444 19.2711 197.106 19.8194 197.594 20.5183C198.089 21.2115 198.353 22.0012 198.387 22.8876H196.844ZM202.162 35.9785V22.8876H203.688V35.9785H202.162ZM202.938 20.6376C202.626 20.6376 202.358 20.5325 202.137 20.3223C201.915 20.1064 201.805 19.8478 201.805 19.5467C201.805 19.2456 201.915 18.9899 202.137 18.7797C202.358 18.5637 202.626 18.4558 202.938 18.4558C203.251 18.4558 203.518 18.5637 203.739 18.7797C203.961 18.9899 204.072 19.2456 204.072 19.5467C204.072 19.8478 203.961 20.1064 203.739 20.3223C203.518 20.5325 203.251 20.6376 202.938 20.6376ZM207.7 35.9785V22.8876H209.175V24.899H209.311C209.572 24.2228 210.007 23.6916 210.615 23.3052C211.229 22.9132 211.964 22.7172 212.822 22.7172C213.726 22.7172 214.467 22.9302 215.047 23.3564C215.632 23.7768 216.069 24.3564 216.359 25.095H216.47C216.765 24.3677 217.246 23.791 217.91 23.3649C218.581 22.9331 219.393 22.7172 220.348 22.7172C221.564 22.7172 222.524 23.1007 223.229 23.8677C223.933 24.6291 224.285 25.7427 224.285 27.2086V35.9785H222.768V27.2086C222.768 26.1745 222.504 25.399 221.976 24.8819C221.447 24.3649 220.751 24.1064 219.888 24.1064C218.888 24.1064 218.118 24.4132 217.578 25.0268C217.038 25.6404 216.768 26.4189 216.768 27.362V35.9785H215.217V27.0723C215.217 26.1859 214.97 25.47 214.476 24.9245C213.981 24.3791 213.285 24.1064 212.388 24.1064C211.785 24.1064 211.243 24.2541 210.76 24.5495C210.282 24.845 209.905 25.2569 209.626 25.7853C209.354 26.3081 209.217 26.9103 209.217 27.5922V35.9785H207.7ZM236.62 30.9757V22.8876H238.137V35.9785H236.62V33.8052H236.501C236.194 34.4757 235.708 35.0353 235.043 35.4842C234.378 35.9274 233.566 36.149 232.606 36.149C231.77 36.149 231.029 35.9672 230.381 35.6035C229.733 35.2342 229.225 34.6944 228.856 33.9842C228.486 33.274 228.302 32.4018 228.302 31.3677V22.8876H229.819V31.274C229.819 32.2967 230.12 33.1206 230.722 33.7456C231.324 34.3649 232.097 34.6745 233.04 34.6745C233.631 34.6745 234.199 34.5325 234.745 34.2484C235.29 33.9643 235.739 33.5495 236.091 33.0041C236.444 32.4529 236.62 31.7768 236.62 30.9757ZM243.67 18.524V35.9785H242.153V18.524H243.67ZM251.341 36.2768C250.551 36.2768 249.829 36.1234 249.176 35.8166C248.523 35.5041 248.003 35.0552 247.616 34.47C247.23 33.8791 247.037 33.1632 247.037 32.3223C247.037 31.6745 247.159 31.1291 247.403 30.6859C247.648 30.2427 247.994 29.8791 248.443 29.595C248.892 29.3109 249.423 29.0865 250.037 28.9217C250.65 28.7569 251.327 28.6291 252.065 28.5382C252.798 28.4473 253.417 28.3677 253.923 28.2995C254.434 28.2314 254.824 28.1234 255.091 27.9757C255.358 27.8279 255.491 27.5893 255.491 27.2598V26.9529C255.491 26.0609 255.224 25.3592 254.69 24.8478C254.162 24.3308 253.4 24.0723 252.406 24.0723C251.463 24.0723 250.693 24.2797 250.096 24.6944C249.506 25.1092 249.091 25.5978 248.852 26.1603L247.412 25.6404C247.707 24.9245 248.116 24.3535 248.639 23.9274C249.162 23.4956 249.747 23.1859 250.395 22.9984C251.042 22.8052 251.699 22.7086 252.363 22.7086C252.863 22.7086 253.383 22.774 253.923 22.9047C254.469 23.0353 254.974 23.2626 255.44 23.5865C255.906 23.9047 256.284 24.3507 256.574 24.9245C256.863 25.4927 257.008 26.2143 257.008 27.0893V35.9785H255.491V33.9075H255.398C255.216 34.2939 254.946 34.6689 254.588 35.0325C254.23 35.3961 253.781 35.6944 253.241 35.9274C252.702 36.1603 252.068 36.2768 251.341 36.2768ZM251.545 34.8876C252.352 34.8876 253.051 34.7086 253.642 34.3507C254.233 33.9927 254.687 33.5183 255.006 32.9274C255.329 32.3308 255.491 31.6745 255.491 30.9586V29.0666C255.378 29.1745 255.187 29.2711 254.92 29.3564C254.659 29.4416 254.355 29.5183 254.008 29.5865C253.667 29.649 253.327 29.7029 252.986 29.7484C252.645 29.7939 252.338 29.8336 252.065 29.8677C251.327 29.9586 250.696 30.1007 250.173 30.2939C249.65 30.487 249.25 30.7541 248.971 31.095C248.693 31.4302 248.554 31.862 248.554 32.3904C248.554 33.1859 248.838 33.8024 249.406 34.2399C249.974 34.6717 250.687 34.8876 251.545 34.8876ZM266.2 22.8876V24.2086H259.953V22.8876H266.2ZM261.905 19.7512H263.43V32.5609C263.43 33.1064 263.524 33.5353 263.711 33.8478C263.899 34.1547 264.143 34.3734 264.444 34.5041C264.746 34.6291 265.067 34.6916 265.407 34.6916C265.606 34.6916 265.777 34.6802 265.919 34.6575C266.061 34.6291 266.186 34.6007 266.294 34.5723L266.618 35.9444C266.47 36.0012 266.288 36.0524 266.072 36.0978C265.856 36.149 265.589 36.1745 265.271 36.1745C264.714 36.1745 264.177 36.0524 263.66 35.8081C263.149 35.5637 262.729 35.2001 262.399 34.7172C262.069 34.2342 261.905 33.6348 261.905 32.9189V19.7512ZM269.662 35.9785V22.8876H271.188V35.9785H269.662ZM270.438 20.6376C270.126 20.6376 269.858 20.5325 269.637 20.3223C269.415 20.1064 269.305 19.8478 269.305 19.5467C269.305 19.2456 269.415 18.9899 269.637 18.7797C269.858 18.5637 270.126 18.4558 270.438 18.4558C270.751 18.4558 271.018 18.5637 271.239 18.7797C271.461 18.9899 271.572 19.2456 271.572 19.5467C271.572 19.8478 271.461 20.1064 271.239 20.3223C271.018 20.5325 270.751 20.6376 270.438 20.6376ZM280.288 36.2512C279.157 36.2512 278.157 35.9643 277.288 35.3904C276.425 34.8166 275.748 34.024 275.26 33.0126C274.771 31.9956 274.527 30.8223 274.527 29.4927C274.527 28.1518 274.771 26.9728 275.26 25.9558C275.748 24.9331 276.425 24.1376 277.288 23.5694C278.157 22.9956 279.157 22.7086 280.288 22.7086C281.419 22.7086 282.416 22.9956 283.28 23.5694C284.143 24.1433 284.819 24.9387 285.308 25.9558C285.802 26.9728 286.05 28.1518 286.05 29.4927C286.05 30.8223 285.805 31.9956 285.317 33.0126C284.828 34.024 284.149 34.8166 283.28 35.3904C282.416 35.9643 281.419 36.2512 280.288 36.2512ZM280.288 34.862C281.197 34.862 281.967 34.6177 282.598 34.1291C283.229 33.6404 283.706 32.9899 284.03 32.1774C284.359 31.3649 284.524 30.47 284.524 29.4927C284.524 28.5154 284.359 27.6177 284.03 26.7995C283.706 25.9814 283.229 25.3251 282.598 24.8308C281.967 24.3365 281.197 24.0893 280.288 24.0893C279.385 24.0893 278.615 24.3365 277.979 24.8308C277.348 25.3251 276.868 25.9814 276.538 26.7995C276.214 27.6177 276.052 28.5154 276.052 29.4927C276.052 30.47 276.214 31.3649 276.538 32.1774C276.868 32.9899 277.348 33.6404 277.979 34.1291C278.609 34.6177 279.379 34.862 280.288 34.862ZM290.897 27.7967V35.9785H289.38V22.8876H290.854V24.9416H290.991C291.297 24.2711 291.775 23.7342 292.422 23.3308C293.076 22.9217 293.883 22.7172 294.843 22.7172C295.724 22.7172 296.496 22.9018 297.161 23.2711C297.831 23.6348 298.351 24.1717 298.721 24.8819C299.096 25.5922 299.283 26.4643 299.283 27.4984V35.9785H297.766V27.5922C297.766 26.5183 297.465 25.6689 296.863 25.0439C296.266 24.4189 295.465 24.1064 294.459 24.1064C293.772 24.1064 293.161 24.2541 292.627 24.5495C292.093 24.845 291.67 25.2711 291.357 25.8279C291.05 26.3791 290.897 27.0353 290.897 27.7967Z" fill="#4B382E"/>
</svg>
