<svg width="379" height="111" viewBox="0 0 379 111" fill="none" xmlns="http://www.w3.org/2000/svg">
<rect x="2" y="2" width="375" height="92" rx="4" fill="white"/>
<rect x="2" y="2" width="375" height="92" rx="4" stroke="#4B382E" stroke-width="4" stroke-linecap="round"/>
<g clip-path="url(#clip0_359_306)">
<path d="M51.6953 74.1754L73.705 66.4648L75.9952 68.7989L78.4478 71.2098L64.7836 75.968L51.6953 80.6011" stroke="#4B382E"/>
<path d="M52.1236 74.1754L30.1138 66.4648L27.7586 68.8896L25.3711 71.2098L39.144 75.9148L52.1236 80.6011" stroke="#4B382E"/>
<path d="M32.1992 66.8608H30.0508V73.1097H32.1992V66.8608Z" fill="#4B382E"/>
<path d="M71.8223 66.8525H73.9707V73.1014H71.8223V66.8525Z" fill="#4B382E"/>
<path d="M35.1055 67.8301H32.957V74.079H35.1055V67.8301Z" fill="#4B382E"/>
<path d="M68.916 67.8218H71.0645V74.0707H68.916V67.8218Z" fill="#4B382E"/>
<path d="M38.0117 68.7993H35.8633V75.0482H38.0117V68.7993Z" fill="#4B382E"/>
<path d="M66.0098 68.7905H68.1582V75.0394H66.0098V68.7905Z" fill="#4B382E"/>
<path d="M41.2363 69.9854H39.0879V76.2342H41.2363V69.9854Z" fill="#4B382E"/>
<path d="M62.7852 69.9771H64.9336V76.2259H62.7852V69.9771Z" fill="#4B382E"/>
<path d="M44.3027 71.125H42.1543V77.3739H44.3027V71.125Z" fill="#4B382E"/>
<path d="M59.7187 71.1167H61.8672V77.3656H59.7187V71.1167Z" fill="#4B382E"/>
<path d="M47.209 72.0942H45.0605V78.3431H47.209V72.0942Z" fill="#4B382E"/>
<path d="M56.8125 72.0859H58.9609V78.3348H56.8125V72.0859Z" fill="#4B382E"/>
<path d="M50.1152 73.1099H47.9668V79.3587H50.1152V73.1099Z" fill="#4B382E"/>
<path d="M53.9062 73.1011H56.0547V79.35H53.9062V73.1011Z" fill="#4B382E"/>
<path d="M51.5371 73.6318H49.3887V79.8807H51.5371V73.6318Z" fill="#4B382E"/>
<path d="M52.4844 73.6235H54.6328V79.8724H52.4844V73.6235Z" fill="#4B382E"/>
<path d="M33.6211 67.5645H31.4727V73.4509H33.6211V67.5645Z" fill="#4B382E"/>
<path d="M70.4004 67.5562H72.5488V73.4426H70.4004V67.5562Z" fill="#4B382E"/>
<path d="M36.5273 68.5337H34.3789V74.4202H36.5273V68.5337Z" fill="#4B382E"/>
<path d="M67.4941 68.5254H69.6426V74.4119H67.4941V68.5254Z" fill="#4B382E"/>
<path d="M39.4336 69.5029H37.2852V75.5195H39.4336V69.5029Z" fill="#4B382E"/>
<path d="M64.5879 69.4941H66.7363V75.5107H64.5879V69.4941Z" fill="#4B382E"/>
<path d="M42.6582 70.689H40.5098V76.5754H42.6582V70.689Z" fill="#4B382E"/>
<path d="M61.3633 70.6802H63.5117V76.5666H61.3633V70.6802Z" fill="#4B382E"/>
<path d="M45.7246 71.8286H43.5762V77.7151H45.7246V71.8286Z" fill="#4B382E"/>
<path d="M58.2969 71.7349H60.4453V77.7066H58.2969V71.7349Z" fill="#4B382E"/>
<path d="M48.6309 72.7979H46.4824V78.6843H48.6309V72.7979Z" fill="#4B382E"/>
<path d="M55.3906 72.7891H57.5391V78.6755H55.3906V72.7891Z" fill="#4B382E"/>
<path d="M51.5371 73.813H49.3887V79.6994H51.5371V73.813Z" fill="#4B382E"/>
<path d="M52.4844 73.8047H54.6328V79.6911H52.4844V73.8047Z" fill="#4B382E"/>
<path d="M52.959 74.3359H50.8105V80.2224H52.959V74.3359Z" fill="#4B382E"/>
<path d="M51.0625 74.3276H53.2109V80.2141H51.0625V74.3276Z" fill="#4B382E"/>
<path d="M31.4727 66.9863H29.3242V72.6489H31.4727V66.9863Z" fill="#4B382E"/>
<path d="M72.5488 66.9775H74.6973V72.6401H72.5488V66.9775Z" fill="#4B382E"/>
<path d="M30.7012 67.9238H28.5527V72.1413H30.7012V67.9238Z" fill="#4B382E"/>
<path d="M73.3203 67.9146H75.4688V72.1321H73.3203V67.9146Z" fill="#4B382E"/>
<path d="M29.627 68.875H27.4785V71.84H29.627V68.875Z" fill="#4B382E"/>
<path d="M74.3945 68.8667H76.543V71.8317H74.3945V68.8667Z" fill="#4B382E"/>
<path d="M28.6895 69.8438H26.8223V71.84H28.6895V69.8438Z" fill="#4B382E"/>
<path d="M75.332 69.835H77.1992V71.8312H75.332V69.835Z" fill="#4B382E"/>
<path d="M27.7559 70.3574H25.8887V71.5416H27.7559V70.3574Z" fill="#4B382E"/>
<path d="M76.2656 70.3491H78.1328V71.5333H76.2656V70.3491Z" fill="#4B382E"/>
<path d="M48.7437 16.4838C49.0909 16.3995 49.4411 16.3808 49.7809 16.4184C52.8616 16.4964 55.6997 17.6692 57.7789 19.8822C59.3931 21.6005 60.4283 23.8134 60.8424 26.3363C61.4516 26.5276 62.0423 26.7787 62.6021 27.0932C63.817 27.7756 64.8615 28.7267 65.648 29.8773C66.4347 31.0283 66.9406 32.3465 67.1187 33.7299C67.1905 34.2875 67.207 34.8488 67.1715 35.4057C68.1806 36.2329 69.0283 37.2484 69.6588 38.4057C70.358 39.6891 70.7628 41.0997 70.8541 42.5404C72.051 43.5218 73.0178 44.7635 73.6646 46.1859C74.5807 48.2007 74.801 50.4557 74.2857 52.6078C73.7708 54.7586 72.5542 56.6722 70.8395 58.0727C69.1261 59.4719 67.0039 60.2875 64.7926 60.4135C64.736 60.4167 64.6793 60.4183 64.6227 60.4184H39.6266C37.3598 60.4184 35.1461 59.6925 33.3316 58.3383C31.5155 56.9828 30.197 55.0689 29.6041 52.8842C29.0109 50.6981 29.1839 48.3828 30.0914 46.307C30.7379 44.8285 31.7286 43.5394 32.9645 42.5268C33.056 41.0861 33.4613 39.6753 34.1607 38.392C34.7911 37.2355 35.6386 36.2208 36.6471 35.3939C36.6115 34.8374 36.6281 34.2765 36.6998 33.7191C36.8778 32.3359 37.3832 31.0176 38.1695 29.8666C38.9557 28.716 40.0001 27.7651 41.2145 27.0824C42.4285 26.3999 43.7835 26.0014 45.1734 25.9125L45.3648 25.9066H45.7672C46.181 25.9066 46.7649 25.6593 47.1568 24.7494C47.5335 23.8747 47.6312 22.4773 46.8336 20.8725C46.5915 20.4398 46.4518 19.9416 46.4518 19.4105V19.3988C46.4518 18.0149 47.399 16.8107 48.7437 16.4838Z" stroke="#4B382E" stroke-width="6" stroke-linecap="round" stroke-linejoin="round"/>
<path d="M93.168 74.9999V24.8181H111.055C114.959 24.8181 118.194 25.5287 120.759 26.9498C123.323 28.371 125.243 30.3149 126.517 32.7815C127.791 35.2318 128.428 37.9924 128.428 41.0635C128.428 44.1508 127.783 46.9278 126.492 49.3944C125.218 51.8447 123.291 53.7886 120.71 55.2261C118.145 56.6473 114.918 57.3579 111.031 57.3579H98.7302V50.9381H110.344C112.811 50.9381 114.812 50.5134 116.348 49.664C117.883 48.7982 119.011 47.6221 119.729 46.1356C120.448 44.649 120.808 42.9584 120.808 41.0635C120.808 39.1686 120.448 37.4861 119.729 36.0159C119.011 34.5457 117.875 33.3941 116.323 32.561C114.788 31.7279 112.762 31.3113 110.246 31.3113H100.739V74.9999H93.168ZM148.648 75.7595C145.119 75.7595 142.04 74.9509 139.41 73.3337C136.78 71.7165 134.738 69.4541 133.284 66.5464C131.831 63.6387 131.104 60.241 131.104 56.3532C131.104 52.4491 131.831 49.0351 133.284 46.111C134.738 43.187 136.78 40.9164 139.41 39.2993C142.04 37.6821 145.119 36.8735 148.648 36.8735C152.176 36.8735 155.255 37.6821 157.885 39.2993C160.515 40.9164 162.557 43.187 164.011 46.111C165.465 49.0351 166.192 52.4491 166.192 56.3532C166.192 60.241 165.465 63.6387 164.011 66.5464C162.557 69.4541 160.515 71.7165 157.885 73.3337C155.255 74.9509 152.176 75.7595 148.648 75.7595ZM148.672 69.6093C150.959 69.6093 152.854 69.0049 154.357 67.7961C155.86 66.5873 156.97 64.9782 157.689 62.969C158.424 60.9598 158.792 58.7463 158.792 56.3287C158.792 53.9275 158.424 51.7222 157.689 49.713C156.97 47.6874 155.86 46.062 154.357 44.8369C152.854 43.6118 150.959 42.9992 148.672 42.9992C146.369 42.9992 144.458 43.6118 142.939 44.8369C141.436 46.062 140.317 47.6874 139.582 49.713C138.863 51.7222 138.503 53.9275 138.503 56.3287C138.503 58.7463 138.863 60.9598 139.582 62.969C140.317 64.9782 141.436 66.5873 142.939 67.7961C144.458 69.0049 146.369 69.6093 148.672 69.6093ZM186.773 75.7595C183.244 75.7595 180.165 74.9509 177.535 73.3337C174.905 71.7165 172.863 69.4541 171.41 66.5464C169.956 63.6387 169.229 60.241 169.229 56.3532C169.229 52.4491 169.956 49.0351 171.41 46.111C172.863 43.187 174.905 40.9164 177.535 39.2993C180.165 37.6821 183.244 36.8735 186.773 36.8735C190.301 36.8735 193.38 37.6821 196.01 39.2993C198.64 40.9164 200.682 43.187 202.136 46.111C203.59 49.0351 204.317 52.4491 204.317 56.3532C204.317 60.241 203.59 63.6387 202.136 66.5464C200.682 69.4541 198.64 71.7165 196.01 73.3337C193.38 74.9509 190.301 75.7595 186.773 75.7595ZM186.797 69.6093C189.084 69.6093 190.979 69.0049 192.482 67.7961C193.985 66.5873 195.096 64.9782 195.814 62.969C196.55 60.9598 196.917 58.7463 196.917 56.3287C196.917 53.9275 196.55 51.7222 195.814 49.713C195.096 47.6874 193.985 46.062 192.482 44.8369C190.979 43.6118 189.084 42.9992 186.797 42.9992C184.494 42.9992 182.583 43.6118 181.064 44.8369C179.561 46.062 178.442 47.6874 177.707 49.713C176.988 51.7222 176.629 53.9275 176.629 56.3287C176.629 58.7463 176.988 60.9598 177.707 62.969C178.442 64.9782 179.561 66.5873 181.064 67.7961C182.583 69.0049 184.494 69.6093 186.797 69.6093ZM216.371 24.8181V74.9999H209.045V24.8181H216.371ZM233.73 75.833C231.345 75.833 229.189 75.3919 227.261 74.5098C225.334 73.6114 223.806 72.3128 222.679 70.6139C221.569 68.915 221.013 66.8323 221.013 64.3657C221.013 62.2421 221.422 60.4942 222.238 59.1221C223.055 57.7499 224.158 56.6636 225.546 55.8632C226.935 55.0628 228.487 54.4584 230.202 54.05C231.917 53.6416 233.665 53.3312 235.445 53.1189C237.7 52.8575 239.529 52.6451 240.934 52.4818C242.339 52.3021 243.36 52.0162 243.997 51.6242C244.634 51.2321 244.952 50.5951 244.952 49.713V49.5414C244.952 47.4015 244.348 45.7435 243.139 44.5674C241.947 43.3912 240.166 42.8032 237.798 42.8032C235.331 42.8032 233.387 43.3504 231.966 44.4449C230.561 45.523 229.589 46.7236 229.05 48.0468L222.165 46.4786C222.982 44.1917 224.174 42.3458 225.742 40.941C227.327 39.5198 229.148 38.4907 231.206 37.8536C233.265 37.2002 235.429 36.8735 237.7 36.8735C239.202 36.8735 240.795 37.0532 242.478 37.4125C244.176 37.7556 245.761 38.3927 247.231 39.3238C248.718 40.2549 249.935 41.5862 250.882 43.3177C251.83 45.0329 252.303 47.2627 252.303 50.007V74.9999H245.148V69.8543H244.854C244.381 70.8017 243.67 71.7329 242.723 72.6476C241.775 73.5624 240.558 74.322 239.072 74.9264C237.585 75.5308 235.805 75.833 233.73 75.833ZM235.323 69.9523C237.348 69.9523 239.08 69.5521 240.517 68.7517C241.971 67.9512 243.074 66.9058 243.825 65.6153C244.593 64.3085 244.977 62.9118 244.977 61.4253V56.5738C244.716 56.8351 244.209 57.0802 243.458 57.3088C242.723 57.5212 241.881 57.7091 240.934 57.8724C239.987 58.0194 239.064 58.1583 238.165 58.289C237.267 58.4033 236.515 58.5013 235.911 58.583C234.49 58.7627 233.191 59.0649 232.015 59.4896C230.855 59.9143 229.924 60.5269 229.222 61.3273C228.536 62.1114 228.192 63.1569 228.192 64.4637C228.192 66.2769 228.862 67.649 230.202 68.5802C231.541 69.4949 233.248 69.9523 235.323 69.9523ZM265.938 52.6533V74.9999H258.612V37.3635H265.644V43.4892H266.109C266.975 41.4963 268.331 39.8955 270.177 38.6867C272.039 37.4779 274.383 36.8735 277.209 36.8735C279.774 36.8735 282.02 37.4125 283.947 38.4907C285.875 39.5525 287.37 41.137 288.431 43.2442C289.493 45.3515 290.024 47.9569 290.024 51.0606V74.9999H282.698V51.9427C282.698 49.2147 281.987 47.083 280.566 45.5475C279.145 43.9956 277.193 43.2197 274.71 43.2197C273.011 43.2197 271.5 43.5873 270.177 44.3223C268.87 45.0574 267.833 46.1356 267.065 47.5567C266.314 48.9615 265.938 50.6604 265.938 52.6533ZM313.968 37.3635V43.2442H293.41V37.3635H313.968ZM298.924 28.3465H306.25V63.9491C306.25 65.3703 306.462 66.4402 306.887 67.159C307.312 67.8614 307.859 68.3433 308.529 68.6047C309.215 68.8497 309.958 68.9722 310.758 68.9722C311.347 68.9722 311.861 68.9314 312.302 68.8497C312.743 68.768 313.086 68.7027 313.331 68.6537L314.654 74.7059C314.23 74.8692 313.625 75.0326 312.841 75.1959C312.057 75.3756 311.077 75.4736 309.901 75.49C307.973 75.5226 306.176 75.1796 304.51 74.4608C302.844 73.7421 301.496 72.6313 300.467 71.1285C299.438 69.6256 298.924 67.7389 298.924 65.4683V28.3465ZM318.623 74.9999V37.3635H325.949V74.9999H318.623ZM322.323 31.5564C321.048 31.5564 319.954 31.1316 319.039 30.2822C318.141 29.4164 317.692 28.3873 317.692 27.1949C317.692 25.986 318.141 24.9569 319.039 24.1075C319.954 23.2417 321.048 22.8088 322.323 22.8088C323.597 22.8088 324.683 23.2417 325.581 24.1075C326.496 24.9569 326.954 25.986 326.954 27.1949C326.954 28.3873 326.496 29.4164 325.581 30.2822C324.683 31.1316 323.597 31.5564 322.323 31.5564ZM332.355 74.9999V37.3635H339.437V43.3422H339.829C340.515 41.3167 341.724 39.724 343.455 38.5642C345.203 37.388 347.179 36.8 349.385 36.8C349.842 36.8 350.381 36.8163 351.002 36.849C351.639 36.8816 352.137 36.9225 352.497 36.9715V43.9793C352.203 43.8976 351.68 43.8078 350.928 43.7098C350.177 43.5954 349.426 43.5383 348.674 43.5383C346.943 43.5383 345.399 43.9058 344.043 44.6409C342.704 45.3596 341.642 46.3642 340.858 47.6547C340.074 48.9289 339.682 50.3827 339.682 52.0162V74.9999H332.355Z" fill="#4B382E"/>
<path d="M327.412 22.6299H317.287V32.7124H327.412V22.6299Z" fill="white"/>
<path d="M325.947 24.7598H318.623V33.0835H325.947V24.7598Z" fill="#4B382E"/>
<path d="M306.864 28.3419L305.791 25.3784L297.463 28.3931L298.536 31.3566L306.864 28.3419Z" fill="white"/>
</g>
<path d="M223.467 105.802V108.325H222.256V103.962H223.41V104.731H223.461C223.558 104.478 223.719 104.277 223.947 104.129C224.174 103.98 224.45 103.905 224.773 103.905C225.076 103.905 225.341 103.971 225.566 104.104C225.791 104.236 225.967 104.426 226.092 104.672C226.217 104.916 226.279 105.208 226.279 105.547V108.325H225.069V105.763C225.071 105.496 225.003 105.287 224.864 105.138C224.726 104.986 224.536 104.91 224.293 104.91C224.13 104.91 223.987 104.945 223.862 105.016C223.738 105.086 223.642 105.188 223.572 105.322C223.504 105.455 223.469 105.615 223.467 105.802ZM229.205 108.41C228.763 108.41 228.382 108.317 228.06 108.129C227.74 107.94 227.492 107.677 227.318 107.339C227.144 107 227.057 106.607 227.057 106.16C227.057 105.71 227.144 105.316 227.318 104.979C227.492 104.64 227.74 104.376 228.06 104.189C228.382 103.999 228.763 103.905 229.205 103.905C229.646 103.905 230.027 103.999 230.347 104.189C230.669 104.376 230.917 104.64 231.091 104.979C231.265 105.316 231.352 105.71 231.352 106.16C231.352 106.607 231.265 107 231.091 107.339C230.917 107.677 230.669 107.94 230.347 108.129C230.027 108.317 229.646 108.41 229.205 108.41ZM229.21 107.473C229.411 107.473 229.579 107.416 229.713 107.302C229.848 107.187 229.949 107.03 230.017 106.831C230.087 106.632 230.122 106.406 230.122 106.152C230.122 105.898 230.087 105.672 230.017 105.473C229.949 105.274 229.848 105.117 229.713 105.001C229.579 104.886 229.411 104.828 229.21 104.828C229.008 104.828 228.837 104.886 228.699 105.001C228.563 105.117 228.459 105.274 228.389 105.473C228.321 105.672 228.287 105.898 228.287 106.152C228.287 106.406 228.321 106.632 228.389 106.831C228.459 107.03 228.563 107.187 228.699 107.302C228.837 107.416 229.008 107.473 229.21 107.473ZM234.46 103.962V104.871H231.832V103.962H234.46ZM232.429 102.916H233.639V106.984C233.639 107.096 233.656 107.183 233.69 107.246C233.724 107.306 233.772 107.349 233.832 107.373C233.895 107.398 233.967 107.41 234.048 107.41C234.105 107.41 234.162 107.406 234.219 107.396C234.276 107.385 234.319 107.376 234.349 107.371L234.54 108.271C234.479 108.29 234.394 108.312 234.284 108.337C234.174 108.363 234.041 108.379 233.884 108.385C233.592 108.396 233.336 108.357 233.116 108.268C232.899 108.179 232.729 108.041 232.608 107.854C232.487 107.666 232.427 107.429 232.429 107.143V102.916ZM238.344 108.408C238.066 108.408 237.818 108.359 237.6 108.263C237.382 108.164 237.21 108.019 237.083 107.828C236.958 107.635 236.896 107.394 236.896 107.106C236.896 106.864 236.94 106.66 237.029 106.496C237.118 106.331 237.239 106.198 237.393 106.098C237.546 105.998 237.72 105.922 237.915 105.871C238.112 105.82 238.319 105.784 238.535 105.763C238.789 105.736 238.993 105.712 239.148 105.689C239.304 105.664 239.416 105.628 239.487 105.581C239.557 105.534 239.592 105.463 239.592 105.371V105.354C239.592 105.174 239.535 105.034 239.421 104.936C239.309 104.838 239.15 104.788 238.944 104.788C238.726 104.788 238.553 104.837 238.424 104.933C238.295 105.028 238.21 105.147 238.168 105.291L237.049 105.2C237.106 104.935 237.218 104.706 237.384 104.513C237.551 104.318 237.766 104.168 238.029 104.064C238.294 103.958 238.601 103.905 238.95 103.905C239.192 103.905 239.424 103.933 239.646 103.99C239.869 104.047 240.067 104.135 240.239 104.254C240.414 104.373 240.551 104.527 240.651 104.714C240.752 104.9 240.802 105.123 240.802 105.382V108.325H239.654V107.72H239.62C239.55 107.856 239.456 107.977 239.339 108.081C239.221 108.183 239.08 108.264 238.915 108.322C238.751 108.379 238.56 108.408 238.344 108.408ZM238.691 107.572C238.869 107.572 239.026 107.537 239.163 107.467C239.299 107.395 239.406 107.299 239.484 107.177C239.561 107.056 239.6 106.919 239.6 106.766V106.302C239.562 106.327 239.51 106.35 239.444 106.371C239.379 106.39 239.307 106.408 239.225 106.425C239.144 106.44 239.062 106.454 238.981 106.467C238.899 106.479 238.826 106.489 238.759 106.498C238.617 106.519 238.493 106.552 238.387 106.598C238.281 106.643 238.199 106.705 238.14 106.783C238.081 106.858 238.052 106.953 238.052 107.067C238.052 107.231 238.112 107.357 238.231 107.445C238.352 107.53 238.505 107.572 238.691 107.572ZM244.087 103.962V104.871H241.394V103.962H244.087ZM242.011 108.325V103.646C242.011 103.33 242.072 103.068 242.195 102.859C242.32 102.651 242.491 102.495 242.707 102.391C242.923 102.286 243.168 102.234 243.442 102.234C243.628 102.234 243.798 102.248 243.951 102.277C244.106 102.305 244.222 102.331 244.298 102.354L244.082 103.263C244.034 103.248 243.976 103.233 243.906 103.22C243.837 103.207 243.767 103.2 243.695 103.2C243.517 103.2 243.393 103.242 243.323 103.325C243.253 103.407 243.218 103.521 243.218 103.669V108.325H242.011ZM247.173 103.962V104.871H244.48V103.962H247.173ZM245.097 108.325V103.646C245.097 103.33 245.158 103.068 245.281 102.859C245.406 102.651 245.577 102.495 245.793 102.391C246.009 102.286 246.254 102.234 246.528 102.234C246.714 102.234 246.884 102.248 247.037 102.277C247.192 102.305 247.308 102.331 247.384 102.354L247.168 103.263C247.12 103.248 247.062 103.233 246.991 103.22C246.923 103.207 246.853 103.2 246.781 103.2C246.603 103.2 246.479 103.242 246.409 103.325C246.339 103.407 246.304 103.521 246.304 103.669V108.325H245.097ZM247.913 108.325V103.962H249.123V108.325H247.913ZM248.521 103.399C248.341 103.399 248.186 103.339 248.058 103.22C247.931 103.099 247.867 102.954 247.867 102.785C247.867 102.619 247.931 102.476 248.058 102.356C248.186 102.235 248.341 102.175 248.521 102.175C248.701 102.175 248.854 102.235 248.981 102.356C249.11 102.476 249.174 102.619 249.174 102.785C249.174 102.954 249.11 103.099 248.981 103.22C248.854 103.339 248.701 103.399 248.521 103.399ZM251.303 102.507V108.325H250.092V102.507H251.303ZM252.272 108.325V103.962H253.482V108.325H252.272ZM252.88 103.399C252.7 103.399 252.546 103.339 252.417 103.22C252.29 103.099 252.227 102.954 252.227 102.785C252.227 102.619 252.29 102.476 252.417 102.356C252.546 102.235 252.7 102.175 252.88 102.175C253.06 102.175 253.213 102.235 253.34 102.356C253.469 102.476 253.533 102.619 253.533 102.785C253.533 102.954 253.469 103.099 253.34 103.22C253.213 103.339 253.06 103.399 252.88 103.399ZM255.696 108.408C255.418 108.408 255.17 108.359 254.952 108.263C254.734 108.164 254.562 108.019 254.435 107.828C254.31 107.635 254.247 107.394 254.247 107.106C254.247 106.864 254.292 106.66 254.381 106.496C254.47 106.331 254.591 106.198 254.744 106.098C254.898 105.998 255.072 105.922 255.267 105.871C255.464 105.82 255.67 105.784 255.886 105.763C256.14 105.736 256.345 105.712 256.5 105.689C256.655 105.664 256.768 105.628 256.838 105.581C256.908 105.534 256.943 105.463 256.943 105.371V105.354C256.943 105.174 256.886 105.034 256.773 104.936C256.661 104.838 256.502 104.788 256.295 104.788C256.078 104.788 255.904 104.837 255.776 104.933C255.647 105.028 255.562 105.147 255.52 105.291L254.401 105.2C254.457 104.935 254.569 104.706 254.736 104.513C254.902 104.318 255.117 104.168 255.381 104.064C255.646 103.958 255.953 103.905 256.301 103.905C256.544 103.905 256.776 103.933 256.997 103.99C257.221 104.047 257.419 104.135 257.591 104.254C257.765 104.373 257.902 104.527 258.003 104.714C258.103 104.9 258.153 105.123 258.153 105.382V108.325H257.006V107.72H256.972C256.902 107.856 256.808 107.977 256.69 108.081C256.573 108.183 256.432 108.264 256.267 108.322C256.102 108.379 255.912 108.408 255.696 108.408ZM256.043 107.572C256.221 107.572 256.378 107.537 256.514 107.467C256.651 107.395 256.758 107.299 256.835 107.177C256.913 107.056 256.952 106.919 256.952 106.766V106.302C256.914 106.327 256.862 106.35 256.795 106.371C256.731 106.39 256.658 106.408 256.577 106.425C256.495 106.44 256.414 106.454 256.332 106.467C256.251 106.479 256.177 106.489 256.111 106.498C255.969 106.519 255.845 106.552 255.739 106.598C255.633 106.643 255.55 106.705 255.491 106.783C255.433 106.858 255.403 106.953 255.403 107.067C255.403 107.231 255.463 107.357 255.582 107.445C255.704 107.53 255.857 107.572 256.043 107.572ZM261.413 103.962V104.871H258.786V103.962H261.413ZM259.382 102.916H260.592V106.984C260.592 107.096 260.609 107.183 260.643 107.246C260.678 107.306 260.725 107.349 260.786 107.373C260.848 107.398 260.92 107.41 261.001 107.41C261.058 107.41 261.115 107.406 261.172 107.396C261.229 107.385 261.272 107.376 261.303 107.371L261.493 108.271C261.432 108.29 261.347 108.312 261.237 108.337C261.127 108.363 260.994 108.379 260.837 108.385C260.545 108.396 260.289 108.357 260.07 108.268C259.852 108.179 259.682 108.041 259.561 107.854C259.44 107.666 259.38 107.429 259.382 107.143V102.916ZM264.143 108.41C263.695 108.41 263.308 108.32 262.984 108.138C262.662 107.954 262.414 107.695 262.24 107.359C262.066 107.022 261.979 106.623 261.979 106.163C261.979 105.714 262.066 105.32 262.24 104.981C262.414 104.642 262.66 104.378 262.976 104.189C263.294 103.999 263.667 103.905 264.095 103.905C264.383 103.905 264.651 103.951 264.899 104.044C265.149 104.135 265.367 104.272 265.553 104.456C265.74 104.64 265.886 104.871 265.99 105.149C266.094 105.426 266.146 105.749 266.146 106.121V106.453H262.462V105.703H265.007C265.007 105.529 264.969 105.374 264.893 105.24C264.818 105.105 264.713 105 264.578 104.925C264.446 104.847 264.291 104.808 264.115 104.808C263.931 104.808 263.768 104.851 263.626 104.936C263.486 105.019 263.376 105.132 263.297 105.274C263.217 105.414 263.177 105.57 263.175 105.743V106.456C263.175 106.672 263.214 106.858 263.294 107.016C263.375 107.173 263.49 107.294 263.638 107.379C263.786 107.464 263.961 107.507 264.163 107.507C264.298 107.507 264.421 107.488 264.533 107.45C264.644 107.412 264.74 107.355 264.82 107.28C264.899 107.204 264.96 107.111 265.001 107.001L266.121 107.075C266.064 107.344 265.947 107.579 265.771 107.78C265.597 107.979 265.372 108.134 265.095 108.246C264.821 108.355 264.503 108.41 264.143 108.41ZM268.544 108.396C268.213 108.396 267.912 108.311 267.643 108.141C267.376 107.968 267.164 107.715 267.007 107.382C266.852 107.047 266.774 106.636 266.774 106.149C266.774 105.649 266.855 105.233 267.016 104.902C267.177 104.569 267.391 104.32 267.658 104.155C267.927 103.988 268.221 103.905 268.541 103.905C268.786 103.905 268.989 103.946 269.152 104.03C269.317 104.111 269.449 104.213 269.55 104.337C269.652 104.458 269.73 104.577 269.783 104.695H269.82V102.507H271.027V108.325H269.834V107.626H269.783C269.726 107.748 269.645 107.868 269.541 107.987C269.439 108.105 269.305 108.202 269.141 108.28C268.978 108.357 268.779 108.396 268.544 108.396ZM268.928 107.433C269.123 107.433 269.287 107.38 269.422 107.274C269.558 107.166 269.662 107.016 269.734 106.822C269.808 106.629 269.845 106.403 269.845 106.143C269.845 105.884 269.809 105.659 269.737 105.467C269.665 105.276 269.561 105.128 269.425 105.024C269.288 104.92 269.123 104.868 268.928 104.868C268.729 104.868 268.561 104.922 268.425 105.03C268.288 105.138 268.185 105.287 268.115 105.479C268.045 105.67 268.01 105.891 268.01 106.143C268.01 106.397 268.045 106.622 268.115 106.817C268.187 107.01 268.29 107.161 268.425 107.271C268.561 107.379 268.729 107.433 268.928 107.433ZM274.734 108.325L273.547 103.962H274.771L275.447 106.893H275.487L276.192 103.962H277.393L278.109 106.876H278.146L278.811 103.962H280.033L278.848 108.325H277.567L276.817 105.581H276.763L276.013 108.325H274.734ZM280.678 108.325V103.962H281.888V108.325H280.678ZM281.286 103.399C281.106 103.399 280.952 103.339 280.823 103.22C280.696 103.099 280.633 102.954 280.633 102.785C280.633 102.619 280.696 102.476 280.823 102.356C280.952 102.235 281.106 102.175 281.286 102.175C281.466 102.175 281.62 102.235 281.746 102.356C281.875 102.476 281.94 102.619 281.94 102.785C281.94 102.954 281.875 103.099 281.746 103.22C281.62 103.339 281.466 103.399 281.286 103.399ZM285.179 103.962V104.871H282.551V103.962H285.179ZM283.148 102.916H284.358V106.984C284.358 107.096 284.375 107.183 284.409 107.246C284.443 107.306 284.491 107.349 284.551 107.373C284.614 107.398 284.686 107.41 284.767 107.41C284.824 107.41 284.881 107.406 284.938 107.396C284.994 107.385 285.038 107.376 285.068 107.371L285.259 108.271C285.198 108.29 285.113 108.312 285.003 108.337C284.893 108.363 284.759 108.379 284.602 108.385C284.311 108.396 284.055 108.357 283.835 108.268C283.617 108.179 283.448 108.041 283.327 107.854C283.205 107.666 283.146 107.429 283.148 107.143V102.916ZM287.271 105.802V108.325H286.061V102.507H287.237V104.731H287.288C287.387 104.474 287.546 104.272 287.766 104.126C287.985 103.979 288.261 103.905 288.592 103.905C288.895 103.905 289.16 103.971 289.385 104.104C289.612 104.234 289.788 104.423 289.913 104.669C290.04 104.913 290.103 105.206 290.101 105.547V108.325H288.891V105.763C288.893 105.494 288.824 105.284 288.686 105.135C288.55 104.985 288.358 104.91 288.112 104.91C287.947 104.91 287.802 104.945 287.675 105.016C287.55 105.086 287.451 105.188 287.379 105.322C287.309 105.455 287.273 105.615 287.271 105.802ZM292.928 108.325V102.507H295.223C295.664 102.507 296.04 102.591 296.351 102.76C296.661 102.927 296.898 103.159 297.061 103.456C297.226 103.751 297.308 104.092 297.308 104.479C297.308 104.865 297.225 105.206 297.058 105.501C296.892 105.797 296.65 106.027 296.334 106.192C296.019 106.356 295.639 106.439 295.192 106.439H293.729V105.453H294.993C295.23 105.453 295.425 105.412 295.578 105.331C295.733 105.248 295.849 105.133 295.925 104.987C296.002 104.839 296.041 104.67 296.041 104.479C296.041 104.285 296.002 104.117 295.925 103.973C295.849 103.827 295.733 103.714 295.578 103.635C295.423 103.553 295.226 103.513 294.987 103.513H294.158V108.325H292.928ZM299.212 108.408C298.933 108.408 298.685 108.359 298.467 108.263C298.25 108.164 298.077 108.019 297.95 107.828C297.825 107.635 297.763 107.394 297.763 107.106C297.763 106.864 297.807 106.66 297.896 106.496C297.985 106.331 298.107 106.198 298.26 106.098C298.413 105.998 298.588 105.922 298.783 105.871C298.98 105.82 299.186 105.784 299.402 105.763C299.656 105.736 299.86 105.712 300.016 105.689C300.171 105.664 300.284 105.628 300.354 105.581C300.424 105.534 300.459 105.463 300.459 105.371V105.354C300.459 105.174 300.402 105.034 300.288 104.936C300.177 104.838 300.018 104.788 299.811 104.788C299.593 104.788 299.42 104.837 299.291 104.933C299.162 105.028 299.077 105.147 299.036 105.291L297.916 105.2C297.973 104.935 298.085 104.706 298.251 104.513C298.418 104.318 298.633 104.168 298.896 104.064C299.161 103.958 299.468 103.905 299.817 103.905C300.059 103.905 300.291 103.933 300.513 103.99C300.736 104.047 300.934 104.135 301.107 104.254C301.281 104.373 301.418 104.527 301.518 104.714C301.619 104.9 301.669 105.123 301.669 105.382V108.325H300.521V107.72H300.487C300.417 107.856 300.323 107.977 300.206 108.081C300.089 108.183 299.947 108.264 299.783 108.322C299.618 108.379 299.428 108.408 299.212 108.408ZM299.558 107.572C299.736 107.572 299.893 107.537 300.03 107.467C300.166 107.395 300.273 107.299 300.351 107.177C300.429 107.056 300.467 106.919 300.467 106.766V106.302C300.429 106.327 300.377 106.35 300.311 106.371C300.247 106.39 300.174 106.408 300.092 106.425C300.011 106.44 299.929 106.454 299.848 106.467C299.767 106.479 299.693 106.489 299.626 106.498C299.484 106.519 299.36 106.552 299.254 106.598C299.148 106.643 299.066 106.705 299.007 106.783C298.948 106.858 298.919 106.953 298.919 107.067C298.919 107.231 298.979 107.357 299.098 107.445C299.219 107.53 299.373 107.572 299.558 107.572ZM303.818 102.507V108.325H302.608V102.507H303.818ZM306.032 108.408C305.754 108.408 305.505 108.359 305.288 108.263C305.07 108.164 304.897 108.019 304.771 107.828C304.646 107.635 304.583 107.394 304.583 107.106C304.583 106.864 304.628 106.66 304.717 106.496C304.806 106.331 304.927 106.198 305.08 106.098C305.234 105.998 305.408 105.922 305.603 105.871C305.8 105.82 306.006 105.784 306.222 105.763C306.476 105.736 306.681 105.712 306.836 105.689C306.991 105.664 307.104 105.628 307.174 105.581C307.244 105.534 307.279 105.463 307.279 105.371V105.354C307.279 105.174 307.222 105.034 307.109 104.936C306.997 104.838 306.838 104.788 306.631 104.788C306.414 104.788 306.24 104.837 306.112 104.933C305.983 105.028 305.897 105.147 305.856 105.291L304.737 105.2C304.793 104.935 304.905 104.706 305.072 104.513C305.238 104.318 305.453 104.168 305.717 104.064C305.982 103.958 306.289 103.905 306.637 103.905C306.879 103.905 307.112 103.933 307.333 103.99C307.557 104.047 307.754 104.135 307.927 104.254C308.101 104.373 308.238 104.527 308.339 104.714C308.439 104.9 308.489 105.123 308.489 105.382V108.325H307.342V107.72H307.308C307.237 107.856 307.144 107.977 307.026 108.081C306.909 108.183 306.768 108.264 306.603 108.322C306.438 108.379 306.248 108.408 306.032 108.408ZM306.379 107.572C306.557 107.572 306.714 107.537 306.85 107.467C306.987 107.395 307.094 107.299 307.171 107.177C307.249 107.056 307.288 106.919 307.288 106.766V106.302C307.25 106.327 307.198 106.35 307.131 106.371C307.067 106.39 306.994 106.408 306.913 106.425C306.831 106.44 306.75 106.454 306.668 106.467C306.587 106.479 306.513 106.489 306.447 106.498C306.305 106.519 306.181 106.552 306.075 106.598C305.969 106.643 305.886 106.705 305.827 106.783C305.769 106.858 305.739 106.953 305.739 107.067C305.739 107.231 305.799 107.357 305.918 107.445C306.04 107.53 306.193 107.572 306.379 107.572ZM310.638 105.802V108.325H309.428V103.962H310.582V104.731H310.633C310.729 104.478 310.891 104.277 311.119 104.129C311.346 103.98 311.621 103.905 311.945 103.905C312.248 103.905 312.513 103.971 312.738 104.104C312.963 104.236 313.138 104.426 313.263 104.672C313.388 104.916 313.451 105.208 313.451 105.547V108.325H312.241V105.763C312.243 105.496 312.174 105.287 312.036 105.138C311.898 104.986 311.708 104.91 311.465 104.91C311.302 104.91 311.158 104.945 311.033 105.016C310.91 105.086 310.814 105.188 310.744 105.322C310.675 105.455 310.64 105.615 310.638 105.802ZM316.726 103.962V104.871H314.098V103.962H316.726ZM314.695 102.916H315.905V106.984C315.905 107.096 315.922 107.183 315.956 107.246C315.99 107.306 316.037 107.349 316.098 107.373C316.161 107.398 316.232 107.41 316.314 107.41C316.371 107.41 316.428 107.406 316.484 107.396C316.541 107.385 316.585 107.376 316.615 107.371L316.805 108.271C316.745 108.29 316.66 108.312 316.55 108.337C316.44 108.363 316.306 108.379 316.149 108.385C315.857 108.396 315.602 108.357 315.382 108.268C315.164 108.179 314.995 108.041 314.874 107.854C314.752 107.666 314.693 107.429 314.695 107.143V102.916ZM317.514 108.325V103.962H318.724V108.325H317.514ZM318.122 103.399C317.942 103.399 317.788 103.339 317.659 103.22C317.532 103.099 317.469 102.954 317.469 102.785C317.469 102.619 317.532 102.476 317.659 102.356C317.788 102.235 317.942 102.175 318.122 102.175C318.302 102.175 318.455 102.235 318.582 102.356C318.711 102.476 318.776 102.619 318.776 102.785C318.776 102.954 318.711 103.099 318.582 103.22C318.455 103.339 318.302 103.399 318.122 103.399ZM319.694 108.325V103.962H320.867V104.723H320.913C320.992 104.452 321.126 104.248 321.313 104.109C321.501 103.969 321.717 103.899 321.961 103.899C322.022 103.899 322.087 103.903 322.157 103.91C322.227 103.918 322.289 103.928 322.342 103.942V105.016C322.285 104.998 322.206 104.983 322.106 104.97C322.005 104.957 321.914 104.95 321.83 104.95C321.652 104.95 321.493 104.989 321.353 105.067C321.215 105.142 321.105 105.248 321.023 105.385C320.944 105.521 320.904 105.678 320.904 105.856V108.325H319.694ZM324.62 103.521V102.507H329.398V103.521H327.617V108.325H326.401V103.521H324.62ZM331.518 108.41C331.07 108.41 330.683 108.32 330.359 108.138C330.037 107.954 329.789 107.695 329.615 107.359C329.441 107.022 329.354 106.623 329.354 106.163C329.354 105.714 329.441 105.32 329.615 104.981C329.789 104.642 330.035 104.378 330.351 104.189C330.669 103.999 331.042 103.905 331.47 103.905C331.758 103.905 332.026 103.951 332.274 104.044C332.524 104.135 332.742 104.272 332.928 104.456C333.115 104.64 333.261 104.871 333.365 105.149C333.469 105.426 333.521 105.749 333.521 106.121V106.453H329.837V105.703H332.382C332.382 105.529 332.344 105.374 332.268 105.24C332.193 105.105 332.088 105 331.953 104.925C331.821 104.847 331.666 104.808 331.49 104.808C331.306 104.808 331.143 104.851 331.001 104.936C330.861 105.019 330.751 105.132 330.672 105.274C330.592 105.414 330.552 105.57 330.55 105.743V106.456C330.55 106.672 330.589 106.858 330.669 107.016C330.75 107.173 330.865 107.294 331.013 107.379C331.161 107.464 331.336 107.507 331.538 107.507C331.673 107.507 331.796 107.488 331.908 107.45C332.019 107.412 332.115 107.355 332.195 107.28C332.274 107.204 332.335 107.111 332.376 107.001L333.496 107.075C333.439 107.344 333.322 107.579 333.146 107.78C332.972 107.979 332.747 108.134 332.47 108.246C332.196 108.355 331.878 108.41 331.518 108.41ZM336.283 108.41C335.836 108.41 335.451 108.316 335.129 108.126C334.809 107.935 334.563 107.67 334.391 107.331C334.22 106.992 334.135 106.602 334.135 106.16C334.135 105.713 334.221 105.321 334.393 104.984C334.568 104.645 334.815 104.381 335.135 104.192C335.455 104 335.836 103.905 336.277 103.905C336.658 103.905 336.991 103.974 337.277 104.112C337.563 104.25 337.789 104.445 337.956 104.695C338.123 104.945 338.214 105.238 338.232 105.575H337.089C337.057 105.357 336.972 105.182 336.834 105.05C336.697 104.915 336.518 104.848 336.297 104.848C336.109 104.848 335.946 104.899 335.805 105.001C335.667 105.102 335.559 105.248 335.482 105.442C335.404 105.635 335.365 105.869 335.365 106.143C335.365 106.422 335.403 106.659 335.479 106.854C335.556 107.049 335.665 107.197 335.805 107.3C335.946 107.402 336.109 107.453 336.297 107.453C336.435 107.453 336.559 107.425 336.669 107.368C336.781 107.311 336.873 107.229 336.945 107.121C337.018 107.011 337.067 106.879 337.089 106.726H338.232C338.213 107.059 338.122 107.353 337.959 107.606C337.798 107.858 337.575 108.055 337.291 108.197C337.007 108.339 336.671 108.41 336.283 108.41ZM340.217 105.802V108.325H339.006V102.507H340.183V104.731H340.234C340.332 104.474 340.491 104.272 340.711 104.126C340.931 103.979 341.206 103.905 341.538 103.905C341.841 103.905 342.105 103.971 342.33 104.104C342.558 104.234 342.734 104.423 342.859 104.669C342.986 104.913 343.048 105.206 343.046 105.547V108.325H341.836V105.763C341.838 105.494 341.77 105.284 341.631 105.135C341.495 104.985 341.304 104.91 341.058 104.91C340.893 104.91 340.747 104.945 340.62 105.016C340.495 105.086 340.397 105.188 340.325 105.322C340.254 105.455 340.219 105.615 340.217 105.802ZM345.209 105.802V108.325H343.999V103.962H345.152V104.731H345.203C345.3 104.478 345.462 104.277 345.689 104.129C345.916 103.98 346.192 103.905 346.516 103.905C346.819 103.905 347.083 103.971 347.308 104.104C347.534 104.236 347.709 104.426 347.834 104.672C347.959 104.916 348.021 105.208 348.021 105.547V108.325H346.811V105.763C346.813 105.496 346.745 105.287 346.607 105.138C346.468 104.986 346.278 104.91 346.036 104.91C345.873 104.91 345.729 104.945 345.604 105.016C345.481 105.086 345.384 105.188 345.314 105.322C345.246 105.455 345.211 105.615 345.209 105.802ZM350.947 108.41C350.505 108.41 350.124 108.317 349.802 108.129C349.482 107.94 349.235 107.677 349.06 107.339C348.886 107 348.799 106.607 348.799 106.16C348.799 105.71 348.886 105.316 349.06 104.979C349.235 104.64 349.482 104.376 349.802 104.189C350.124 103.999 350.505 103.905 350.947 103.905C351.388 103.905 351.769 103.999 352.089 104.189C352.411 104.376 352.659 104.64 352.833 104.979C353.007 105.316 353.094 105.71 353.094 106.16C353.094 106.607 353.007 107 352.833 107.339C352.659 107.677 352.411 107.94 352.089 108.129C351.769 108.317 351.388 108.41 350.947 108.41ZM350.952 107.473C351.153 107.473 351.321 107.416 351.455 107.302C351.59 107.187 351.691 107.03 351.759 106.831C351.829 106.632 351.864 106.406 351.864 106.152C351.864 105.898 351.829 105.672 351.759 105.473C351.691 105.274 351.59 105.117 351.455 105.001C351.321 104.886 351.153 104.828 350.952 104.828C350.75 104.828 350.579 104.886 350.441 105.001C350.305 105.117 350.201 105.274 350.131 105.473C350.063 105.672 350.029 105.898 350.029 106.152C350.029 106.406 350.063 106.632 350.131 106.831C350.201 107.03 350.305 107.187 350.441 107.302C350.579 107.416 350.75 107.473 350.952 107.473ZM355.092 102.507V108.325H353.881V102.507H355.092ZM358.033 108.41C357.591 108.41 357.21 108.317 356.888 108.129C356.568 107.94 356.321 107.677 356.146 107.339C355.972 107 355.885 106.607 355.885 106.16C355.885 105.71 355.972 105.316 356.146 104.979C356.321 104.64 356.568 104.376 356.888 104.189C357.21 103.999 357.591 103.905 358.033 103.905C358.474 103.905 358.855 103.999 359.175 104.189C359.497 104.376 359.745 104.64 359.919 104.979C360.093 105.316 360.18 105.71 360.18 106.16C360.18 106.607 360.093 107 359.919 107.339C359.745 107.677 359.497 107.94 359.175 108.129C358.855 108.317 358.474 108.41 358.033 108.41ZM358.038 107.473C358.239 107.473 358.407 107.416 358.541 107.302C358.676 107.187 358.777 107.03 358.845 106.831C358.915 106.632 358.95 106.406 358.95 106.152C358.95 105.898 358.915 105.672 358.845 105.473C358.777 105.274 358.676 105.117 358.541 105.001C358.407 104.886 358.239 104.828 358.038 104.828C357.836 104.828 357.665 104.886 357.527 105.001C357.391 105.117 357.287 105.274 357.217 105.473C357.149 105.672 357.115 105.898 357.115 106.152C357.115 106.406 357.149 106.632 357.217 106.831C357.287 107.03 357.391 107.187 357.527 107.302C357.665 107.416 357.836 107.473 358.038 107.473ZM362.933 110.052C362.541 110.052 362.205 109.998 361.925 109.891C361.646 109.784 361.425 109.64 361.26 109.456C361.095 109.272 360.988 109.066 360.939 108.837L362.058 108.686C362.092 108.773 362.146 108.855 362.22 108.93C362.294 109.006 362.392 109.067 362.513 109.112C362.636 109.159 362.786 109.183 362.962 109.183C363.225 109.183 363.442 109.119 363.612 108.99C363.785 108.863 363.871 108.65 363.871 108.351V107.552H363.82C363.767 107.674 363.687 107.788 363.581 107.896C363.475 108.004 363.339 108.092 363.172 108.16C363.005 108.229 362.806 108.263 362.575 108.263C362.248 108.263 361.949 108.187 361.68 108.035C361.413 107.882 361.2 107.648 361.041 107.334C360.884 107.017 360.805 106.618 360.805 106.135C360.805 105.641 360.886 105.228 361.047 104.896C361.208 104.565 361.422 104.317 361.689 104.152C361.958 103.987 362.252 103.905 362.572 103.905C362.817 103.905 363.021 103.946 363.186 104.03C363.351 104.111 363.483 104.213 363.584 104.337C363.686 104.458 363.765 104.577 363.82 104.695H363.865V103.962H365.067V108.368C365.067 108.739 364.976 109.05 364.794 109.3C364.612 109.55 364.36 109.737 364.038 109.862C363.718 109.989 363.35 110.052 362.933 110.052ZM362.959 107.354C363.154 107.354 363.319 107.305 363.453 107.209C363.589 107.11 363.694 106.97 363.766 106.788C363.839 106.605 363.876 106.385 363.876 106.129C363.876 105.873 363.84 105.652 363.768 105.464C363.696 105.275 363.592 105.128 363.456 105.024C363.32 104.92 363.154 104.868 362.959 104.868C362.76 104.868 362.592 104.922 362.456 105.03C362.32 105.136 362.216 105.284 362.146 105.473C362.076 105.662 362.041 105.881 362.041 106.129C362.041 106.381 362.076 106.599 362.146 106.783C362.218 106.964 362.321 107.105 362.456 107.206C362.592 107.304 362.76 107.354 362.959 107.354ZM366.03 108.325V103.962H367.24V108.325H366.03ZM366.638 103.399C366.458 103.399 366.304 103.339 366.175 103.22C366.048 103.099 365.984 102.954 365.984 102.785C365.984 102.619 366.048 102.476 366.175 102.356C366.304 102.235 366.458 102.175 366.638 102.175C366.818 102.175 366.971 102.235 367.098 102.356C367.227 102.476 367.291 102.619 367.291 102.785C367.291 102.954 367.227 103.099 367.098 103.22C366.971 103.339 366.818 103.399 366.638 103.399ZM370.198 108.41C369.749 108.41 369.363 108.32 369.039 108.138C368.717 107.954 368.469 107.695 368.295 107.359C368.121 107.022 368.033 106.623 368.033 106.163C368.033 105.714 368.121 105.32 368.295 104.981C368.469 104.642 368.714 104.378 369.031 104.189C369.349 103.999 369.722 103.905 370.15 103.905C370.438 103.905 370.706 103.951 370.954 104.044C371.204 104.135 371.422 104.272 371.607 104.456C371.795 104.64 371.941 104.871 372.045 105.149C372.149 105.426 372.201 105.749 372.201 106.121V106.453H368.516V105.703H371.062C371.062 105.529 371.024 105.374 370.948 105.24C370.872 105.105 370.767 105 370.633 104.925C370.5 104.847 370.346 104.808 370.17 104.808C369.986 104.808 369.823 104.851 369.681 104.936C369.541 105.019 369.431 105.132 369.352 105.274C369.272 105.414 369.231 105.57 369.229 105.743V106.456C369.229 106.672 369.269 106.858 369.349 107.016C369.43 107.173 369.545 107.294 369.692 107.379C369.84 107.464 370.015 107.507 370.218 107.507C370.353 107.507 370.476 107.488 370.587 107.45C370.699 107.412 370.795 107.355 370.874 107.28C370.954 107.204 371.014 107.111 371.056 107.001L372.175 107.075C372.119 107.344 372.002 107.579 371.826 107.78C371.652 107.979 371.426 108.134 371.15 108.246C370.875 108.355 370.558 108.41 370.198 108.41ZM376.621 105.206L375.513 105.274C375.495 105.179 375.454 105.094 375.391 105.018C375.329 104.941 375.246 104.879 375.144 104.834C375.044 104.786 374.924 104.763 374.783 104.763C374.596 104.763 374.438 104.802 374.309 104.882C374.18 104.96 374.116 105.064 374.116 105.195C374.116 105.299 374.157 105.387 374.241 105.459C374.324 105.531 374.467 105.588 374.67 105.632L375.46 105.791C375.884 105.878 376.2 106.018 376.408 106.212C376.617 106.405 376.721 106.659 376.721 106.973C376.721 107.259 376.637 107.51 376.468 107.726C376.301 107.942 376.072 108.11 375.781 108.231C375.491 108.351 375.156 108.41 374.778 108.41C374.2 108.41 373.74 108.29 373.397 108.05C373.056 107.807 372.856 107.478 372.798 107.061L373.988 106.998C374.024 107.175 374.111 107.309 374.249 107.402C374.388 107.493 374.565 107.538 374.781 107.538C374.993 107.538 375.163 107.498 375.292 107.416C375.423 107.333 375.489 107.226 375.491 107.095C375.489 106.985 375.442 106.895 375.352 106.825C375.261 106.753 375.121 106.698 374.931 106.66L374.175 106.51C373.749 106.425 373.432 106.277 373.224 106.067C373.017 105.856 372.914 105.588 372.914 105.263C372.914 104.982 372.99 104.741 373.141 104.538C373.295 104.336 373.51 104.179 373.786 104.07C374.065 103.96 374.39 103.905 374.763 103.905C375.315 103.905 375.748 104.021 376.065 104.254C376.383 104.487 376.568 104.804 376.621 105.206Z" fill="#FF0000"/>
<defs>
<clipPath id="clip0_359_306">
<rect width="342" height="80" fill="white" transform="translate(18.5 8)"/>
</clipPath>
</defs>
</svg>
