<svg width="352" height="352" viewBox="0 0 352 352" fill="none" xmlns="http://www.w3.org/2000/svg">
<path d="M351.516 0H0V348.745H351.516V0Z" fill="white"/>
<path d="M169.525 267.101L248.581 239.686L256.806 247.985L265.616 256.557L216.536 273.475L169.525 289.948" stroke="#4B382E" stroke-width="5"/>
<path d="M171.061 267.101L92.0061 239.686L83.5462 248.307L74.9707 256.557L124.441 273.286L171.061 289.948" stroke="#4B382E" stroke-width="5"/>
<path d="M99.4981 241.094H91.7812V263.312H99.4981V241.094Z" fill="#4B382E"/>
<path d="M241.818 241.064H249.535V263.282H241.818V241.064Z" fill="#4B382E"/>
<path d="M109.938 244.54H102.221V266.758H109.938V244.54Z" fill="#4B382E"/>
<path d="M231.379 244.51H239.096V266.729H231.379V244.51Z" fill="#4B382E"/>
<path d="M120.375 247.986H112.658V270.204H120.375V247.986Z" fill="#4B382E"/>
<path d="M220.939 247.955H228.656V270.173H220.939V247.955Z" fill="#4B382E"/>
<path d="M131.957 252.203H124.24V274.421H131.957V252.203Z" fill="#4B382E"/>
<path d="M209.357 252.174H217.074V274.392H209.357V252.174Z" fill="#4B382E"/>
<path d="M142.973 256.255H135.256V278.474H142.973V256.255Z" fill="#4B382E"/>
<path d="M198.344 256.226H206.061V278.444H198.344V256.226Z" fill="#4B382E"/>
<path d="M153.41 259.701H145.693V281.92H153.41V259.701Z" fill="#4B382E"/>
<path d="M187.904 259.672H195.621V281.89H187.904V259.672Z" fill="#4B382E"/>
<path d="M163.85 263.312H156.133V285.531H163.85V263.312Z" fill="#4B382E"/>
<path d="M177.467 263.281H185.184V285.5H177.467V263.281Z" fill="#4B382E"/>
<path d="M168.957 265.168H161.24V287.387H168.957V265.168Z" fill="#4B382E"/>
<path d="M172.359 265.139H180.076V287.357H172.359V265.139Z" fill="#4B382E"/>
<path d="M104.606 243.595H96.8887V264.525H104.606V243.595Z" fill="#4B382E"/>
<path d="M236.711 243.566H244.428V264.496H236.711V243.566Z" fill="#4B382E"/>
<path d="M115.045 247.042H107.328V267.971H115.045V247.042Z" fill="#4B382E"/>
<path d="M226.271 247.012H233.988V267.942H226.271V247.012Z" fill="#4B382E"/>
<path d="M125.482 250.488H117.766V271.88H125.482V250.488Z" fill="#4B382E"/>
<path d="M215.834 250.457H223.551V271.849H215.834V250.457Z" fill="#4B382E"/>
<path d="M137.065 254.705H129.348V275.634H137.065V254.705Z" fill="#4B382E"/>
<path d="M204.25 254.674H211.967V275.603H204.25V254.674Z" fill="#4B382E"/>
<path d="M148.078 258.757H140.361V279.686H148.078V258.757Z" fill="#4B382E"/>
<path d="M193.236 258.423H200.953V279.656H193.236V258.423Z" fill="#4B382E"/>
<path d="M158.518 262.203H150.801V283.133H158.518V262.203Z" fill="#4B382E"/>
<path d="M182.797 262.172H190.514V283.102H182.797V262.172Z" fill="#4B382E"/>
<path d="M168.957 265.812H161.24V286.742H168.957V265.812Z" fill="#4B382E"/>
<path d="M172.359 265.783H180.076V286.713H172.359V265.783Z" fill="#4B382E"/>
<path d="M174.065 267.672H166.348V288.602H174.065V267.672Z" fill="#4B382E"/>
<path d="M167.252 267.642H174.969V288.572H167.252V267.642Z" fill="#4B382E"/>
<path d="M96.8887 241.54H89.1719V261.673H96.8887V241.54Z" fill="#4B382E"/>
<path d="M244.428 241.509H252.145V261.642H244.428V241.509Z" fill="#4B382E"/>
<path d="M94.1172 244.873H86.4004V259.869H94.1172V244.873Z" fill="#4B382E"/>
<path d="M247.199 244.84H254.916V259.836H247.199V244.84Z" fill="#4B382E"/>
<path d="M90.2598 248.255H82.543V258.798H90.2598V248.255Z" fill="#4B382E"/>
<path d="M251.057 248.226H258.773V258.768H251.057V248.226Z" fill="#4B382E"/>
<path d="M86.8922 251.699H80.1855V258.797H86.8922V251.699Z" fill="#4B382E"/>
<path d="M254.424 251.668H261.131V258.766H254.424V251.668Z" fill="#4B382E"/>
<path d="M83.5387 253.526H76.832V257.737H83.5387V253.526Z" fill="#4B382E"/>
<path d="M257.778 253.497H264.484V257.707H257.778V253.497Z" fill="#4B382E"/>
<path d="M158.924 61.9757C160.171 61.6757 161.429 61.6095 162.649 61.7429C173.714 62.0202 183.909 66.1901 191.377 74.0589C197.175 80.1681 200.893 88.0365 202.38 97.0069C204.569 97.687 206.69 98.5798 208.701 99.6977C213.065 102.124 216.817 105.506 219.642 109.597C222.467 113.69 224.284 118.376 224.924 123.295C225.182 125.278 225.241 127.274 225.113 129.253C228.738 132.195 231.783 135.805 234.047 139.92C236.559 144.483 238.013 149.499 238.341 154.621C242.64 158.111 246.112 162.526 248.436 167.583C251.726 174.747 252.517 182.765 250.667 190.417C248.817 198.064 244.447 204.868 238.288 209.847C232.134 214.822 224.512 217.722 216.569 218.17C216.365 218.182 216.162 218.187 215.958 218.187H126.177C118.035 218.188 110.084 215.607 103.566 210.792C97.0428 205.972 92.307 199.167 90.1774 191.399C88.0467 183.626 88.6684 175.394 91.928 168.014C94.2498 162.757 97.8086 158.173 102.247 154.573C102.576 149.451 104.032 144.434 106.544 139.872C108.808 135.76 111.852 132.152 115.475 129.212C115.347 127.233 115.406 125.239 115.664 123.257C116.303 118.339 118.119 113.651 120.943 109.559C123.767 105.468 127.518 102.087 131.88 99.6597C136.241 97.233 141.108 95.8157 146.1 95.5L146.788 95.479H148.233C149.719 95.479 151.816 94.5997 153.224 91.3645C154.577 88.2545 154.928 83.2856 152.063 77.5797C151.194 76.0412 150.692 74.2701 150.692 72.3818V72.3402C150.692 67.4197 154.094 63.1377 158.924 61.9757Z" stroke="#4B382E" stroke-width="20" stroke-linecap="round" stroke-linejoin="round"/>
</svg>
