<svg width="375" height="132" viewBox="0 0 375 132" fill="none" xmlns="http://www.w3.org/2000/svg">
<path d="M50.0742 66.1754L72.0839 58.4648L74.3741 60.7989L76.8267 63.2098L63.1625 67.968L50.0742 72.6011" stroke="#4B382E"/>
<path d="M50.5025 66.1754L28.4927 58.4648L26.1375 60.8896L23.75 63.2098L37.5229 67.9148L50.5025 72.6011" stroke="#4B382E"/>
<path d="M30.5781 58.8608H28.4297V65.1097H30.5781V58.8608Z" fill="#4B382E"/>
<path d="M70.2012 58.8525H72.3496V65.1014H70.2012V58.8525Z" fill="#4B382E"/>
<path d="M33.4844 59.8301H31.3359V66.079H33.4844V59.8301Z" fill="#4B382E"/>
<path d="M67.2949 59.8218H69.4434V66.0707H67.2949V59.8218Z" fill="#4B382E"/>
<path d="M36.3906 60.7993H34.2422V67.0482H36.3906V60.7993Z" fill="#4B382E"/>
<path d="M64.3887 60.7905H66.5371V67.0394H64.3887V60.7905Z" fill="#4B382E"/>
<path d="M39.6152 61.9854H37.4668V68.2342H39.6152V61.9854Z" fill="#4B382E"/>
<path d="M61.1641 61.9771H63.3125V68.2259H61.1641V61.9771Z" fill="#4B382E"/>
<path d="M42.6816 63.125H40.5332V69.3739H42.6816V63.125Z" fill="#4B382E"/>
<path d="M58.0977 63.1167H60.2461V69.3656H58.0977V63.1167Z" fill="#4B382E"/>
<path d="M45.5879 64.0942H43.4395V70.3431H45.5879V64.0942Z" fill="#4B382E"/>
<path d="M55.1914 64.0859H57.3398V70.3348H55.1914V64.0859Z" fill="#4B382E"/>
<path d="M48.4941 65.1099H46.3457V71.3587H48.4941V65.1099Z" fill="#4B382E"/>
<path d="M52.2852 65.1011H54.4336V71.35H52.2852V65.1011Z" fill="#4B382E"/>
<path d="M49.916 65.6318H47.7676V71.8807H49.916V65.6318Z" fill="#4B382E"/>
<path d="M50.8633 65.6235H53.0117V71.8724H50.8633V65.6235Z" fill="#4B382E"/>
<path d="M32 59.5645H29.8516V65.4509H32V59.5645Z" fill="#4B382E"/>
<path d="M68.7793 59.5562H70.9277V65.4426H68.7793V59.5562Z" fill="#4B382E"/>
<path d="M34.9063 60.5337H32.7578V66.4202H34.9063V60.5337Z" fill="#4B382E"/>
<path d="M65.873 60.5254H68.0215V66.4119H65.873V60.5254Z" fill="#4B382E"/>
<path d="M37.8125 61.5029H35.6641V67.5195H37.8125V61.5029Z" fill="#4B382E"/>
<path d="M62.9668 61.4941H65.1152V67.5107H62.9668V61.4941Z" fill="#4B382E"/>
<path d="M41.0371 62.689H38.8887V68.5754H41.0371V62.689Z" fill="#4B382E"/>
<path d="M59.7422 62.6802H61.8906V68.5666H59.7422V62.6802Z" fill="#4B382E"/>
<path d="M44.1035 63.8286H41.9551V69.7151H44.1035V63.8286Z" fill="#4B382E"/>
<path d="M56.6758 63.7349H58.8242V69.7066H56.6758V63.7349Z" fill="#4B382E"/>
<path d="M47.0098 64.7979H44.8613V70.6843H47.0098V64.7979Z" fill="#4B382E"/>
<path d="M53.7695 64.7891H55.918V70.6755H53.7695V64.7891Z" fill="#4B382E"/>
<path d="M49.916 65.813H47.7676V71.6994H49.916V65.813Z" fill="#4B382E"/>
<path d="M50.8633 65.8047H53.0117V71.6911H50.8633V65.8047Z" fill="#4B382E"/>
<path d="M51.3379 66.3359H49.1895V72.2224H51.3379V66.3359Z" fill="#4B382E"/>
<path d="M49.4414 66.3276H51.5898V72.2141H49.4414V66.3276Z" fill="#4B382E"/>
<path d="M29.8516 58.9863H27.7031V64.6489H29.8516V58.9863Z" fill="#4B382E"/>
<path d="M70.9277 58.9775H73.0762V64.6401H70.9277V58.9775Z" fill="#4B382E"/>
<path d="M29.0801 59.9238H26.9316V64.1413H29.0801V59.9238Z" fill="#4B382E"/>
<path d="M71.6992 59.9146H73.8477V64.1321H71.6992V59.9146Z" fill="#4B382E"/>
<path d="M28.0059 60.875H25.8574V63.84H28.0059V60.875Z" fill="#4B382E"/>
<path d="M72.7734 60.8667H74.9219V63.8317H72.7734V60.8667Z" fill="#4B382E"/>
<path d="M27.0684 61.8438H25.2012V63.84H27.0684V61.8438Z" fill="#4B382E"/>
<path d="M73.7109 61.835H75.5781V63.8312H73.7109V61.835Z" fill="#4B382E"/>
<path d="M26.1348 62.3574H24.2676V63.5416H26.1348V62.3574Z" fill="#4B382E"/>
<path d="M74.6445 62.3491H76.5117V63.5333H74.6445V62.3491Z" fill="#4B382E"/>
<path d="M47.1226 8.48382C47.4698 8.39947 47.82 8.38082 48.1598 8.41839C51.2405 8.4964 54.0786 9.66915 56.1578 11.8822C57.772 13.6005 58.8072 15.8134 59.2213 18.3363C59.8305 18.5276 60.4212 18.7787 60.981 19.0932C62.1959 19.7756 63.2404 20.7267 64.0269 21.8773C64.8136 23.0283 65.3195 24.3465 65.4976 25.7299C65.5694 26.2875 65.5859 26.8488 65.5504 27.4057C66.5595 28.2329 67.4072 29.2484 68.0377 30.4057C68.7369 31.6891 69.1417 33.0997 69.233 34.5404C70.4299 35.5218 71.3967 36.7635 72.0435 38.1859C72.9596 40.2007 73.1799 42.4557 72.6646 44.6078C72.1497 46.7586 70.9331 48.6722 69.2184 50.0727C67.505 51.4719 65.3828 52.2875 63.1715 52.4135C63.1149 52.4167 63.0582 52.4183 63.0016 52.4184H38.0055C35.7387 52.4184 33.525 51.6925 31.7105 50.3383C29.8944 48.9828 28.5759 47.0689 27.983 44.8842C27.3898 42.6981 27.5628 40.3828 28.4703 38.307C29.1168 36.8285 30.1075 35.5394 31.3434 34.5268C31.4349 33.0861 31.8402 31.6753 32.5396 30.392C33.17 29.2355 34.0175 28.2208 35.026 27.3939C34.9904 26.8374 35.007 26.2765 35.0787 25.7191C35.2567 24.3359 35.7621 23.0176 36.5484 21.8666C37.3346 20.716 38.379 19.7651 39.5934 19.0824C40.8074 18.3999 42.1624 18.0014 43.5523 17.9125L43.7437 17.9066H44.1461C44.5599 17.9066 45.1438 17.6593 45.5357 16.7494C45.9124 15.8747 46.0101 14.4773 45.2125 12.8725C44.9704 12.4398 44.8307 11.9416 44.8307 11.4105V11.3988C44.8307 10.0149 45.7779 8.8107 47.1226 8.48382Z" stroke="#4B382E" stroke-width="6" stroke-linecap="round" stroke-linejoin="round"/>
<path d="M91.5469 66.9999V16.8181H109.434C113.338 16.8181 116.573 17.5287 119.138 18.9498C121.702 20.371 123.622 22.3149 124.896 24.7815C126.17 27.2318 126.807 29.9924 126.807 33.0635C126.807 36.1508 126.162 38.9278 124.871 41.3944C123.597 43.8447 121.67 45.7886 119.089 47.2261C116.524 48.6473 113.297 49.3579 109.409 49.3579H97.1091V42.9381H108.723C111.19 42.9381 113.191 42.5134 114.727 41.664C116.262 40.7982 117.39 39.6221 118.108 38.1356C118.827 36.649 119.187 34.9584 119.187 33.0635C119.187 31.1686 118.827 29.4861 118.108 28.0159C117.39 26.5457 116.254 25.3941 114.702 24.561C113.167 23.7279 111.141 23.3113 108.625 23.3113H99.1183V66.9999H91.5469ZM147.027 67.7595C143.498 67.7595 140.419 66.9509 137.789 65.3337C135.159 63.7165 133.117 61.4541 131.663 58.5464C130.21 55.6387 129.483 52.241 129.483 48.3532C129.483 44.4491 130.21 41.0351 131.663 38.111C133.117 35.187 135.159 32.9164 137.789 31.2993C140.419 29.6821 143.498 28.8735 147.027 28.8735C150.555 28.8735 153.634 29.6821 156.264 31.2993C158.894 32.9164 160.936 35.187 162.39 38.111C163.844 41.0351 164.571 44.4491 164.571 48.3532C164.571 52.241 163.844 55.6387 162.39 58.5464C160.936 61.4541 158.894 63.7165 156.264 65.3337C153.634 66.9509 150.555 67.7595 147.027 67.7595ZM147.051 61.6093C149.338 61.6093 151.233 61.0049 152.736 59.7961C154.239 58.5873 155.349 56.9782 156.068 54.969C156.803 52.9598 157.171 50.7463 157.171 48.3287C157.171 45.9275 156.803 43.7222 156.068 41.713C155.349 39.6874 154.239 38.062 152.736 36.8369C151.233 35.6118 149.338 34.9992 147.051 34.9992C144.748 34.9992 142.837 35.6118 141.318 36.8369C139.815 38.062 138.696 39.6874 137.961 41.713C137.242 43.7222 136.882 45.9275 136.882 48.3287C136.882 50.7463 137.242 52.9598 137.961 54.969C138.696 56.9782 139.815 58.5873 141.318 59.7961C142.837 61.0049 144.748 61.6093 147.051 61.6093ZM185.152 67.7595C181.623 67.7595 178.544 66.9509 175.914 65.3337C173.284 63.7165 171.242 61.4541 169.789 58.5464C168.335 55.6387 167.608 52.241 167.608 48.3532C167.608 44.4491 168.335 41.0351 169.789 38.111C171.242 35.187 173.284 32.9164 175.914 31.2993C178.544 29.6821 181.623 28.8735 185.152 28.8735C188.68 28.8735 191.759 29.6821 194.389 31.2993C197.019 32.9164 199.061 35.187 200.515 38.111C201.969 41.0351 202.696 44.4491 202.696 48.3532C202.696 52.241 201.969 55.6387 200.515 58.5464C199.061 61.4541 197.019 63.7165 194.389 65.3337C191.759 66.9509 188.68 67.7595 185.152 67.7595ZM185.176 61.6093C187.463 61.6093 189.358 61.0049 190.861 59.7961C192.364 58.5873 193.475 56.9782 194.193 54.969C194.929 52.9598 195.296 50.7463 195.296 48.3287C195.296 45.9275 194.929 43.7222 194.193 41.713C193.475 39.6874 192.364 38.062 190.861 36.8369C189.358 35.6118 187.463 34.9992 185.176 34.9992C182.873 34.9992 180.962 35.6118 179.443 36.8369C177.94 38.062 176.821 39.6874 176.086 41.713C175.367 43.7222 175.008 45.9275 175.008 48.3287C175.008 50.7463 175.367 52.9598 176.086 54.969C176.821 56.9782 177.94 58.5873 179.443 59.7961C180.962 61.0049 182.873 61.6093 185.176 61.6093ZM214.75 16.8181V66.9999H207.424V16.8181H214.75ZM232.109 67.833C229.724 67.833 227.568 67.3919 225.64 66.5098C223.713 65.6114 222.185 64.3128 221.058 62.6139C219.948 60.915 219.392 58.8323 219.392 56.3657C219.392 54.2421 219.801 52.4942 220.617 51.1221C221.434 49.7499 222.537 48.6636 223.925 47.8632C225.314 47.0628 226.866 46.4584 228.581 46.05C230.296 45.6416 232.044 45.3312 233.824 45.1189C236.079 44.8575 237.908 44.6451 239.313 44.4818C240.718 44.3021 241.739 44.0162 242.376 43.6242C243.013 43.2321 243.331 42.5951 243.331 41.713V41.5414C243.331 39.4015 242.727 37.7435 241.518 36.5674C240.326 35.3912 238.545 34.8032 236.177 34.8032C233.71 34.8032 231.766 35.3504 230.345 36.4449C228.94 37.523 227.968 38.7236 227.429 40.0468L220.544 38.4786C221.361 36.1917 222.553 34.3458 224.121 32.941C225.706 31.5198 227.527 30.4907 229.585 29.8536C231.644 29.2002 233.808 28.8735 236.079 28.8735C237.581 28.8735 239.174 29.0532 240.857 29.4125C242.555 29.7556 244.14 30.3927 245.61 31.3238C247.097 32.2549 248.314 33.5862 249.261 35.3177C250.209 37.0329 250.682 39.2627 250.682 42.007V66.9999H243.527V61.8543H243.233C242.76 62.8017 242.049 63.7329 241.102 64.6476C240.154 65.5624 238.937 66.322 237.451 66.9264C235.964 67.5308 234.184 67.833 232.109 67.833ZM233.702 61.9523C235.727 61.9523 237.459 61.5521 238.896 60.7517C240.35 59.9512 241.453 58.9058 242.204 57.6153C242.972 56.3085 243.356 54.9118 243.356 53.4253V48.5738C243.095 48.8351 242.588 49.0802 241.837 49.3088C241.102 49.5212 240.26 49.7091 239.313 49.8724C238.366 50.0194 237.443 50.1583 236.544 50.289C235.646 50.4033 234.894 50.5013 234.29 50.583C232.869 50.7627 231.57 51.0649 230.394 51.4896C229.234 51.9143 228.303 52.5269 227.601 53.3273C226.915 54.1114 226.571 55.1569 226.571 56.4637C226.571 58.2769 227.241 59.649 228.581 60.5802C229.92 61.4949 231.627 61.9523 233.702 61.9523ZM264.317 44.6533V66.9999H256.991V29.3635H264.023V35.4892H264.488C265.354 33.4963 266.71 31.8955 268.556 30.6867C270.418 29.4779 272.762 28.8735 275.588 28.8735C278.153 28.8735 280.399 29.4125 282.326 30.4907C284.254 31.5525 285.749 33.137 286.81 35.2442C287.872 37.3515 288.403 39.9569 288.403 43.0606V66.9999H281.077V43.9427C281.077 41.2147 280.366 39.083 278.945 37.5475C277.524 35.9956 275.572 35.2197 273.089 35.2197C271.39 35.2197 269.879 35.5873 268.556 36.3223C267.249 37.0574 266.212 38.1356 265.444 39.5567C264.693 40.9615 264.317 42.6604 264.317 44.6533ZM312.347 29.3635V35.2442H291.789V29.3635H312.347ZM297.303 20.3465H304.629V55.9491C304.629 57.3703 304.841 58.4402 305.266 59.159C305.691 59.8614 306.238 60.3433 306.908 60.6047C307.594 60.8497 308.337 60.9722 309.137 60.9722C309.726 60.9722 310.24 60.9314 310.681 60.8497C311.122 60.768 311.465 60.7027 311.71 60.6537L313.033 66.7059C312.609 66.8692 312.004 67.0326 311.22 67.1959C310.436 67.3756 309.456 67.4736 308.28 67.49C306.352 67.5226 304.555 67.1796 302.889 66.4608C301.223 65.7421 299.875 64.6313 298.846 63.1285C297.817 61.6256 297.303 59.7389 297.303 57.4683V20.3465ZM317.002 66.9999V29.3635H324.328V66.9999H317.002ZM320.702 23.5564C319.427 23.5564 318.333 23.1316 317.418 22.2822C316.52 21.4164 316.071 20.3873 316.071 19.1949C316.071 17.986 316.52 16.9569 317.418 16.1075C318.333 15.2417 319.427 14.8088 320.702 14.8088C321.976 14.8088 323.062 15.2417 323.96 16.1075C324.875 16.9569 325.333 17.986 325.333 19.1949C325.333 20.3873 324.875 21.4164 323.96 22.2822C323.062 23.1316 321.976 23.5564 320.702 23.5564ZM330.734 66.9999V29.3635H337.816V35.3422H338.208C338.894 33.3167 340.103 31.724 341.834 30.5642C343.582 29.388 345.558 28.8 347.764 28.8C348.221 28.8 348.76 28.8163 349.381 28.849C350.018 28.8816 350.516 28.9225 350.876 28.9715V35.9793C350.582 35.8976 350.059 35.8078 349.307 35.7098C348.556 35.5954 347.805 35.5383 347.053 35.5383C345.322 35.5383 343.778 35.9058 342.422 36.6409C341.083 37.3596 340.021 38.3642 339.237 39.6547C338.453 40.9289 338.061 42.3827 338.061 44.0162V66.9999H330.734Z" fill="#4B382E"/>
<path d="M325.791 14.6299H315.666V24.7124H325.791V14.6299Z" fill="white"/>
<path d="M324.326 16.7598H317.002V25.0835H324.326V16.7598Z" fill="#4B382E"/>
<path d="M305.243 20.3419L304.17 17.3784L295.842 20.3931L296.915 23.3566L305.243 20.3419Z" fill="white"/>
<rect y="92" width="375" height="2" fill="#DEDEDE"/>
<path d="M6.20597 117.875L6.45597 116.364H15.4616L15.2116 117.875H11.581L9.89915 128H8.14915L9.83097 117.875H6.20597ZM17.9403 122.818L17.0881 128H15.3892L17.321 116.364H18.9972L18.2812 120.693H18.3892C18.6657 120.22 19.0369 119.847 19.5028 119.574C19.9725 119.297 20.5483 119.159 21.2301 119.159C21.8286 119.159 22.3305 119.282 22.7358 119.528C23.1449 119.775 23.4328 120.142 23.5994 120.631C23.7699 121.116 23.7964 121.722 23.679 122.449L22.7472 128H21.0483L21.9347 122.653C22.0407 122.013 21.9574 121.517 21.6847 121.165C21.4119 120.809 20.9858 120.631 20.4062 120.631C20.0009 120.631 19.6259 120.716 19.2812 120.886C18.9403 121.057 18.6525 121.307 18.4176 121.636C18.1828 121.962 18.0237 122.356 17.9403 122.818ZM28.7472 128.176C27.8911 128.176 27.1828 127.992 26.6222 127.625C26.0653 127.254 25.6752 126.733 25.4517 126.062C25.2282 125.388 25.1922 124.598 25.3438 123.693C25.4915 122.799 25.7888 122.011 26.2358 121.33C26.6828 120.648 27.2396 120.116 27.9062 119.733C28.5767 119.35 29.3172 119.159 30.1278 119.159C30.6203 119.159 31.0843 119.241 31.5199 119.403C31.9593 119.566 32.3324 119.822 32.6392 120.17C32.946 120.519 33.1581 120.972 33.2756 121.528C33.3968 122.081 33.393 122.754 33.2642 123.545L33.1676 124.148H26.2244L26.4233 122.875H31.696C31.7756 122.428 31.7547 122.032 31.6335 121.688C31.5123 121.339 31.304 121.064 31.0085 120.864C30.7169 120.663 30.3494 120.562 29.9062 120.562C29.4517 120.562 29.0275 120.682 28.6335 120.92C28.2396 121.159 27.91 121.464 27.6449 121.835C27.3835 122.203 27.2188 122.581 27.1506 122.972L26.9517 124.136C26.8532 124.773 26.8703 125.284 27.0028 125.67C27.1392 126.057 27.3778 126.337 27.7188 126.511C28.0597 126.686 28.4858 126.773 28.9972 126.773C29.3267 126.773 29.6316 126.727 29.9119 126.636C30.196 126.542 30.4479 126.403 30.6676 126.222C30.8873 126.036 31.071 125.805 31.2188 125.528L32.7756 125.818C32.5672 126.292 32.268 126.706 31.8778 127.062C31.4877 127.415 31.0275 127.689 30.4972 127.886C29.9706 128.08 29.3873 128.176 28.7472 128.176ZM50.125 116.364L48.1932 128H46.5795L42.0852 119.466H41.983L40.5568 128H38.8011L40.733 116.364H42.358L46.858 124.909H46.9659L48.3864 116.364H50.125ZM54.3338 128.176C53.5043 128.176 52.8111 127.987 52.2543 127.608C51.6974 127.225 51.3054 126.691 51.0781 126.006C50.8546 125.316 50.8168 124.515 50.9645 123.602C51.1084 122.708 51.3982 121.928 51.8338 121.261C52.2732 120.595 52.8224 120.078 53.4815 119.71C54.1444 119.343 54.8812 119.159 55.6918 119.159C56.5213 119.159 57.2126 119.35 57.7656 119.733C58.3224 120.116 58.7145 120.652 58.9418 121.341C59.169 122.03 59.2088 122.833 59.0611 123.75C58.9171 124.636 58.6236 125.413 58.1804 126.08C57.741 126.742 57.1918 127.258 56.5327 127.625C55.8736 127.992 55.1406 128.176 54.3338 128.176ZM54.4304 126.75C54.9759 126.75 55.4512 126.606 55.8565 126.318C56.2656 126.03 56.599 125.648 56.8565 125.17C57.1141 124.693 57.2902 124.17 57.3849 123.602C57.4721 123.053 57.4702 122.551 57.3793 122.097C57.2921 121.638 57.1027 121.271 56.8111 120.994C56.5194 120.718 56.1141 120.58 55.5952 120.58C55.0497 120.58 54.5705 120.725 54.1577 121.017C53.7486 121.305 53.4152 121.689 53.1577 122.17C52.9039 122.652 52.7315 123.176 52.6406 123.744C52.5535 124.29 52.5535 124.792 52.6406 125.25C52.7277 125.705 52.9171 126.068 53.2088 126.341C53.5005 126.614 53.9077 126.75 54.4304 126.75ZM62.8153 122.818L61.9631 128H60.2642L61.7188 119.273H63.3494L63.1108 120.693H63.2188C63.4953 120.227 63.8722 119.856 64.3494 119.58C64.8305 119.299 65.3987 119.159 66.054 119.159C66.6449 119.159 67.1411 119.284 67.5426 119.534C67.9479 119.78 68.2339 120.148 68.4006 120.636C68.571 121.125 68.5975 121.729 68.4801 122.449L67.5483 128H65.8494L66.7415 122.653C66.8438 122.021 66.7604 121.527 66.4915 121.17C66.2263 120.811 65.804 120.631 65.2244 120.631C64.8305 120.631 64.465 120.716 64.1278 120.886C63.7945 121.057 63.5123 121.307 63.2812 121.636C63.054 121.962 62.8987 122.356 62.8153 122.818ZM75.9062 122.347L75.6619 123.818H70.4972L70.7415 122.347H75.9062ZM81.0511 116.364L79.1193 128H77.3636L79.2955 116.364H81.0511ZM84.0966 122.818L83.2443 128H81.5455L83 119.273H84.6307L84.392 120.693H84.5C84.7765 120.227 85.1534 119.856 85.6307 119.58C86.1117 119.299 86.6799 119.159 87.3352 119.159C87.9261 119.159 88.4223 119.284 88.8239 119.534C89.2292 119.78 89.5152 120.148 89.6818 120.636C89.8523 121.125 89.8788 121.729 89.7614 122.449L88.8295 128H87.1307L88.0227 122.653C88.125 122.021 88.0417 121.527 87.7727 121.17C87.5076 120.811 87.0852 120.631 86.5057 120.631C86.1117 120.631 85.7462 120.716 85.4091 120.886C85.0758 121.057 84.7936 121.307 84.5625 121.636C84.3352 121.962 84.1799 122.356 84.0966 122.818ZM99.7102 119.273L95.0909 128H93.2727L91.5568 119.273H93.3125L94.4034 125.989H94.4943L97.8182 119.273H99.7102ZM102.119 128.193C101.566 128.193 101.083 128.091 100.67 127.886C100.258 127.678 99.9527 127.377 99.7557 126.983C99.5587 126.589 99.5076 126.106 99.6023 125.534C99.6856 125.042 99.8485 124.636 100.091 124.318C100.337 124 100.636 123.748 100.989 123.562C101.341 123.373 101.723 123.231 102.136 123.136C102.549 123.042 102.966 122.972 103.386 122.926C103.917 122.866 104.347 122.814 104.676 122.773C105.009 122.731 105.259 122.667 105.426 122.58C105.593 122.489 105.693 122.341 105.727 122.136V122.097C105.807 121.604 105.735 121.222 105.511 120.949C105.292 120.672 104.909 120.534 104.364 120.534C103.795 120.534 103.318 120.659 102.932 120.909C102.549 121.159 102.267 121.439 102.085 121.75L100.562 121.386C100.835 120.856 101.182 120.428 101.602 120.102C102.027 119.773 102.491 119.534 102.994 119.386C103.498 119.235 104.013 119.159 104.54 119.159C104.888 119.159 105.25 119.201 105.625 119.284C106 119.364 106.341 119.511 106.648 119.727C106.958 119.943 107.189 120.252 107.341 120.653C107.492 121.051 107.515 121.568 107.409 122.205L106.449 128H104.79L104.994 126.807H104.926C104.782 127.027 104.581 127.242 104.324 127.455C104.07 127.667 103.759 127.843 103.392 127.983C103.025 128.123 102.6 128.193 102.119 128.193ZM102.699 126.83C103.172 126.83 103.591 126.737 103.955 126.551C104.322 126.366 104.619 126.123 104.847 125.824C105.074 125.521 105.216 125.197 105.273 124.852L105.46 123.727C105.388 123.788 105.261 123.843 105.08 123.892C104.902 123.941 104.701 123.985 104.477 124.023C104.254 124.061 104.034 124.093 103.818 124.119C103.606 124.146 103.43 124.17 103.29 124.193C102.956 124.235 102.644 124.305 102.352 124.403C102.064 124.502 101.824 124.644 101.631 124.83C101.438 125.011 101.316 125.254 101.267 125.557C101.199 125.977 101.299 126.295 101.568 126.511C101.841 126.723 102.218 126.83 102.699 126.83ZM116.354 121.403L114.768 121.676C114.734 121.475 114.664 121.286 114.558 121.108C114.456 120.93 114.299 120.786 114.087 120.676C113.875 120.562 113.592 120.506 113.24 120.506C112.751 120.506 112.323 120.617 111.956 120.841C111.592 121.064 111.384 121.348 111.331 121.693C111.282 121.973 111.348 122.201 111.53 122.375C111.712 122.545 112.032 122.687 112.49 122.801L113.831 123.119C114.604 123.305 115.157 123.595 115.49 123.989C115.827 124.379 115.945 124.886 115.842 125.511C115.755 126.03 115.528 126.491 115.161 126.892C114.797 127.294 114.331 127.608 113.763 127.835C113.195 128.063 112.562 128.176 111.865 128.176C110.873 128.176 110.1 127.966 109.547 127.545C108.994 127.125 108.71 126.53 108.695 125.761L110.376 125.511C110.407 125.939 110.56 126.263 110.837 126.483C111.117 126.699 111.505 126.807 112.001 126.807C112.57 126.811 113.045 126.691 113.428 126.449C113.81 126.206 114.028 125.913 114.081 125.568C114.126 125.299 114.066 125.076 113.899 124.898C113.736 124.72 113.448 124.583 113.036 124.489L111.626 124.165C110.839 123.979 110.282 123.68 109.956 123.267C109.63 122.854 109.52 122.335 109.626 121.71C109.71 121.199 109.926 120.754 110.274 120.375C110.626 119.992 111.071 119.695 111.609 119.483C112.147 119.267 112.742 119.159 113.393 119.159C114.344 119.159 115.058 119.364 115.536 119.773C116.013 120.178 116.286 120.722 116.354 121.403ZM117.29 128L118.744 119.273H120.443L118.989 128H117.29ZM119.949 117.909C119.653 117.909 119.403 117.811 119.199 117.614C118.998 117.413 118.905 117.174 118.92 116.898C118.936 116.617 119.053 116.379 119.273 116.182C119.492 115.981 119.748 115.881 120.04 115.881C120.335 115.881 120.583 115.981 120.784 116.182C120.985 116.379 121.08 116.617 121.068 116.898C121.053 117.174 120.936 117.413 120.716 117.614C120.5 117.811 120.244 117.909 119.949 117.909ZM130.195 119.273L125.575 128H123.757L122.041 119.273H123.797L124.888 125.989H124.979L128.303 119.273H130.195ZM133.778 128.176C132.922 128.176 132.214 127.992 131.653 127.625C131.097 127.254 130.706 126.733 130.483 126.062C130.259 125.388 130.223 124.598 130.375 123.693C130.523 122.799 130.82 122.011 131.267 121.33C131.714 120.648 132.271 120.116 132.938 119.733C133.608 119.35 134.348 119.159 135.159 119.159C135.652 119.159 136.116 119.241 136.551 119.403C136.991 119.566 137.364 119.822 137.67 120.17C137.977 120.519 138.189 120.972 138.307 121.528C138.428 122.081 138.424 122.754 138.295 123.545L138.199 124.148H131.256L131.455 122.875H136.727C136.807 122.428 136.786 122.032 136.665 121.688C136.544 121.339 136.335 121.064 136.04 120.864C135.748 120.663 135.381 120.562 134.938 120.562C134.483 120.562 134.059 120.682 133.665 120.92C133.271 121.159 132.941 121.464 132.676 121.835C132.415 122.203 132.25 122.581 132.182 122.972L131.983 124.136C131.884 124.773 131.902 125.284 132.034 125.67C132.17 126.057 132.409 126.337 132.75 126.511C133.091 126.686 133.517 126.773 134.028 126.773C134.358 126.773 134.663 126.727 134.943 126.636C135.227 126.542 135.479 126.403 135.699 126.222C135.919 126.036 136.102 125.805 136.25 125.528L137.807 125.818C137.598 126.292 137.299 126.706 136.909 127.062C136.519 127.415 136.059 127.689 135.528 127.886C135.002 128.08 134.419 128.176 133.778 128.176ZM143.832 128L145.764 116.364H149.912C150.813 116.364 151.535 116.519 152.077 116.83C152.622 117.136 152.997 117.564 153.202 118.114C153.41 118.659 153.455 119.292 153.338 120.011C153.217 120.723 152.961 121.348 152.571 121.886C152.185 122.424 151.668 122.845 151.02 123.148C150.376 123.447 149.603 123.597 148.702 123.597H145.56L145.821 122.085H148.804C149.376 122.085 149.853 122.004 150.236 121.841C150.618 121.678 150.918 121.441 151.134 121.131C151.353 120.82 151.497 120.447 151.565 120.011C151.637 119.568 151.616 119.188 151.503 118.869C151.389 118.547 151.168 118.301 150.838 118.131C150.509 117.956 150.056 117.869 149.48 117.869H147.276L145.588 128H143.832ZM150.446 122.75L152.452 128H150.452L148.497 122.75H150.446ZM157.685 128.176C156.829 128.176 156.12 127.992 155.56 127.625C155.003 127.254 154.613 126.733 154.389 126.062C154.166 125.388 154.13 124.598 154.281 123.693C154.429 122.799 154.726 122.011 155.173 121.33C155.62 120.648 156.177 120.116 156.844 119.733C157.514 119.35 158.255 119.159 159.065 119.159C159.558 119.159 160.022 119.241 160.457 119.403C160.897 119.566 161.27 119.822 161.577 120.17C161.884 120.519 162.096 120.972 162.213 121.528C162.334 122.081 162.33 122.754 162.202 123.545L162.105 124.148H155.162L155.361 122.875H160.634C160.713 122.428 160.692 122.032 160.571 121.688C160.45 121.339 160.241 121.064 159.946 120.864C159.654 120.663 159.287 120.562 158.844 120.562C158.389 120.562 157.965 120.682 157.571 120.92C157.177 121.159 156.848 121.464 156.582 121.835C156.321 122.203 156.156 122.581 156.088 122.972L155.889 124.136C155.791 124.773 155.808 125.284 155.94 125.67C156.077 126.057 156.315 126.337 156.656 126.511C156.997 126.686 157.423 126.773 157.935 126.773C158.264 126.773 158.569 126.727 158.849 126.636C159.134 126.542 159.385 126.403 159.605 126.222C159.825 126.036 160.009 125.805 160.156 125.528L161.713 125.818C161.505 126.292 161.205 126.706 160.815 127.062C160.425 127.415 159.965 127.689 159.435 127.886C158.908 128.08 158.325 128.176 157.685 128.176ZM171.01 121.403L169.425 121.676C169.391 121.475 169.321 121.286 169.214 121.108C169.112 120.93 168.955 120.786 168.743 120.676C168.531 120.562 168.249 120.506 167.896 120.506C167.408 120.506 166.98 120.617 166.612 120.841C166.249 121.064 166.04 121.348 165.987 121.693C165.938 121.973 166.004 122.201 166.186 122.375C166.368 122.545 166.688 122.687 167.146 122.801L168.487 123.119C169.26 123.305 169.813 123.595 170.146 123.989C170.483 124.379 170.601 124.886 170.499 125.511C170.411 126.03 170.184 126.491 169.817 126.892C169.453 127.294 168.987 127.608 168.419 127.835C167.851 128.063 167.218 128.176 166.521 128.176C165.529 128.176 164.756 127.966 164.203 127.545C163.65 127.125 163.366 126.53 163.351 125.761L165.033 125.511C165.063 125.939 165.216 126.263 165.493 126.483C165.773 126.699 166.161 126.807 166.658 126.807C167.226 126.811 167.701 126.691 168.084 126.449C168.466 126.206 168.684 125.913 168.737 125.568C168.783 125.299 168.722 125.076 168.555 124.898C168.393 124.72 168.105 124.583 167.692 124.489L166.283 124.165C165.495 123.979 164.938 123.68 164.612 123.267C164.286 122.854 164.177 122.335 164.283 121.71C164.366 121.199 164.582 120.754 164.93 120.375C165.283 119.992 165.728 119.695 166.266 119.483C166.804 119.267 167.398 119.159 168.05 119.159C169 119.159 169.714 119.364 170.192 119.773C170.669 120.178 170.942 120.722 171.01 121.403ZM177.474 119.273L177.253 120.636H172.486L172.707 119.273H177.474ZM174.327 117.182H176.026L174.651 125.438C174.598 125.767 174.607 126.015 174.679 126.182C174.751 126.345 174.861 126.456 175.009 126.517C175.16 126.574 175.329 126.602 175.514 126.602C175.651 126.602 175.77 126.593 175.872 126.574C175.974 126.555 176.056 126.54 176.116 126.528L176.207 127.932C176.094 127.97 175.94 128.008 175.747 128.045C175.558 128.087 175.327 128.11 175.054 128.114C174.607 128.121 174.204 128.042 173.844 127.875C173.484 127.705 173.215 127.447 173.037 127.102C172.859 126.754 172.815 126.316 172.906 125.79L174.327 117.182ZM177.899 128L179.354 119.273H180.996L180.763 120.659H180.854C181.089 120.189 181.431 119.82 181.882 119.551C182.333 119.278 182.814 119.142 183.325 119.142C183.435 119.142 183.56 119.146 183.7 119.153C183.84 119.157 183.954 119.167 184.041 119.182L183.768 120.807C183.704 120.788 183.587 120.767 183.416 120.744C183.246 120.718 183.07 120.705 182.888 120.705C182.49 120.705 182.121 120.79 181.78 120.96C181.439 121.127 181.153 121.36 180.922 121.659C180.691 121.955 180.541 122.292 180.473 122.67L179.598 128H177.899ZM187.474 128.176C186.645 128.176 185.952 127.987 185.395 127.608C184.838 127.225 184.446 126.691 184.219 126.006C183.995 125.316 183.957 124.515 184.105 123.602C184.249 122.708 184.539 121.928 184.974 121.261C185.414 120.595 185.963 120.078 186.622 119.71C187.285 119.343 188.022 119.159 188.832 119.159C189.662 119.159 190.353 119.35 190.906 119.733C191.463 120.116 191.855 120.652 192.082 121.341C192.31 122.03 192.349 122.833 192.202 123.75C192.058 124.636 191.764 125.413 191.321 126.08C190.882 126.742 190.332 127.258 189.673 127.625C189.014 127.992 188.281 128.176 187.474 128.176ZM187.571 126.75C188.116 126.75 188.592 126.606 188.997 126.318C189.406 126.03 189.74 125.648 189.997 125.17C190.255 124.693 190.431 124.17 190.526 123.602C190.613 123.053 190.611 122.551 190.52 122.097C190.433 121.638 190.243 121.271 189.952 120.994C189.66 120.718 189.255 120.58 188.736 120.58C188.19 120.58 187.711 120.725 187.298 121.017C186.889 121.305 186.556 121.689 186.298 122.17C186.045 122.652 185.872 123.176 185.781 123.744C185.694 124.29 185.694 124.792 185.781 125.25C185.868 125.705 186.058 126.068 186.349 126.341C186.641 126.614 187.048 126.75 187.571 126.75ZM197.115 128.176C196.286 128.176 195.592 127.987 195.036 127.608C194.479 127.225 194.087 126.691 193.859 126.006C193.636 125.316 193.598 124.515 193.746 123.602C193.89 122.708 194.179 121.928 194.615 121.261C195.054 120.595 195.604 120.078 196.263 119.71C196.926 119.343 197.662 119.159 198.473 119.159C199.303 119.159 199.994 119.35 200.547 119.733C201.104 120.116 201.496 120.652 201.723 121.341C201.95 122.03 201.99 122.833 201.842 123.75C201.698 124.636 201.405 125.413 200.962 126.08C200.522 126.742 199.973 127.258 199.314 127.625C198.655 127.992 197.922 128.176 197.115 128.176ZM197.212 126.75C197.757 126.75 198.232 126.606 198.638 126.318C199.047 126.03 199.38 125.648 199.638 125.17C199.895 124.693 200.071 124.17 200.166 123.602C200.253 123.053 200.251 122.551 200.161 122.097C200.073 121.638 199.884 121.271 199.592 120.994C199.301 120.718 198.895 120.58 198.376 120.58C197.831 120.58 197.352 120.725 196.939 121.017C196.53 121.305 196.196 121.689 195.939 122.17C195.685 122.652 195.513 123.176 195.422 123.744C195.335 124.29 195.335 124.792 195.422 125.25C195.509 125.705 195.698 126.068 195.99 126.341C196.282 126.614 196.689 126.75 197.212 126.75ZM203.045 128L204.5 119.273H206.131L205.892 120.693H206C206.265 120.212 206.625 119.837 207.08 119.568C207.538 119.295 208.057 119.159 208.636 119.159C209.212 119.159 209.676 119.295 210.028 119.568C210.384 119.841 210.617 120.216 210.727 120.693H210.818C211.098 120.223 211.491 119.85 211.994 119.574C212.498 119.297 213.064 119.159 213.693 119.159C214.477 119.159 215.08 119.409 215.5 119.909C215.924 120.405 216.053 121.152 215.886 122.148L214.909 128H213.205L214.159 122.307C214.254 121.712 214.163 121.284 213.886 121.023C213.61 120.758 213.248 120.625 212.801 120.625C212.248 120.625 211.79 120.795 211.426 121.136C211.063 121.473 210.839 121.907 210.756 122.438L209.818 128H208.131L209.102 122.199C209.178 121.722 209.091 121.341 208.841 121.057C208.595 120.769 208.235 120.625 207.761 120.625C207.439 120.625 207.127 120.71 206.824 120.881C206.525 121.051 206.269 121.286 206.057 121.585C205.845 121.884 205.706 122.229 205.642 122.619L204.744 128H203.045ZM223.483 116.364H225.614L227.83 125.409H227.966L233.159 116.364H235.29L233.358 128H231.688L233.091 119.58H232.983L228.153 127.983H226.761L224.739 119.574H224.631L223.222 128H221.551L223.483 116.364ZM239.49 128.176C238.661 128.176 237.967 127.987 237.411 127.608C236.854 127.225 236.462 126.691 236.234 126.006C236.011 125.316 235.973 124.515 236.121 123.602C236.265 122.708 236.554 121.928 236.99 121.261C237.429 120.595 237.979 120.078 238.638 119.71C239.301 119.343 240.037 119.159 240.848 119.159C241.678 119.159 242.369 119.35 242.922 119.733C243.479 120.116 243.871 120.652 244.098 121.341C244.325 122.03 244.365 122.833 244.217 123.75C244.073 124.636 243.78 125.413 243.337 126.08C242.897 126.742 242.348 127.258 241.689 127.625C241.03 127.992 240.297 128.176 239.49 128.176ZM239.587 126.75C240.132 126.75 240.607 126.606 241.013 126.318C241.422 126.03 241.755 125.648 242.013 125.17C242.27 124.693 242.446 124.17 242.541 123.602C242.628 123.053 242.626 122.551 242.536 122.097C242.448 121.638 242.259 121.271 241.967 120.994C241.676 120.718 241.27 120.58 240.751 120.58C240.206 120.58 239.727 120.725 239.314 121.017C238.905 121.305 238.571 121.689 238.314 122.17C238.06 122.652 237.888 123.176 237.797 123.744C237.71 124.29 237.71 124.792 237.797 125.25C237.884 125.705 238.073 126.068 238.365 126.341C238.657 126.614 239.064 126.75 239.587 126.75ZM247.972 122.818L247.119 128H245.42L246.875 119.273H248.506L248.267 120.693H248.375C248.652 120.227 249.028 119.856 249.506 119.58C249.987 119.299 250.555 119.159 251.21 119.159C251.801 119.159 252.297 119.284 252.699 119.534C253.104 119.78 253.39 120.148 253.557 120.636C253.727 121.125 253.754 121.729 253.636 122.449L252.705 128H251.006L251.898 122.653C252 122.021 251.917 121.527 251.648 121.17C251.383 120.811 250.96 120.631 250.381 120.631C249.987 120.631 249.621 120.716 249.284 120.886C248.951 121.057 248.669 121.307 248.438 121.636C248.21 121.962 248.055 122.356 247.972 122.818ZM254.977 128L256.432 119.273H258.131L256.676 128H254.977ZM257.636 117.909C257.341 117.909 257.091 117.811 256.886 117.614C256.686 117.413 256.593 117.174 256.608 116.898C256.623 116.617 256.741 116.379 256.96 116.182C257.18 115.981 257.436 115.881 257.727 115.881C258.023 115.881 258.271 115.981 258.472 116.182C258.672 116.379 258.767 116.617 258.756 116.898C258.741 117.174 258.623 117.413 258.403 117.614C258.188 117.811 257.932 117.909 257.636 117.909ZM264.49 119.273L264.268 120.636H259.501L259.723 119.273H264.49ZM261.342 117.182H263.041L261.666 125.438C261.613 125.767 261.623 126.015 261.695 126.182C261.767 126.345 261.876 126.456 262.024 126.517C262.176 126.574 262.344 126.602 262.53 126.602C262.666 126.602 262.786 126.593 262.888 126.574C262.99 126.555 263.071 126.54 263.132 126.528L263.223 127.932C263.109 127.97 262.956 128.008 262.763 128.045C262.573 128.087 262.342 128.11 262.07 128.114C261.623 128.121 261.219 128.042 260.859 127.875C260.5 127.705 260.231 127.447 260.053 127.102C259.875 126.754 259.831 126.316 259.922 125.79L261.342 117.182ZM268.537 128.176C267.707 128.176 267.014 127.987 266.457 127.608C265.901 127.225 265.509 126.691 265.281 126.006C265.058 125.316 265.02 124.515 265.168 123.602C265.312 122.708 265.601 121.928 266.037 121.261C266.476 120.595 267.026 120.078 267.685 119.71C268.348 119.343 269.084 119.159 269.895 119.159C270.724 119.159 271.416 119.35 271.969 119.733C272.526 120.116 272.918 120.652 273.145 121.341C273.372 122.03 273.412 122.833 273.264 123.75C273.12 124.636 272.827 125.413 272.384 126.08C271.944 126.742 271.395 127.258 270.736 127.625C270.077 127.992 269.344 128.176 268.537 128.176ZM268.634 126.75C269.179 126.75 269.654 126.606 270.06 126.318C270.469 126.03 270.802 125.648 271.06 125.17C271.317 124.693 271.493 124.17 271.588 123.602C271.675 123.053 271.673 122.551 271.582 122.097C271.495 121.638 271.306 121.271 271.014 120.994C270.723 120.718 270.317 120.58 269.798 120.58C269.253 120.58 268.774 120.725 268.361 121.017C267.952 121.305 267.618 121.689 267.361 122.17C267.107 122.652 266.935 123.176 266.844 123.744C266.757 124.29 266.757 124.792 266.844 125.25C266.931 125.705 267.12 126.068 267.412 126.341C267.704 126.614 268.111 126.75 268.634 126.75ZM274.462 128L275.916 119.273H277.558L277.325 120.659H277.416C277.651 120.189 277.994 119.82 278.445 119.551C278.895 119.278 279.376 119.142 279.888 119.142C279.998 119.142 280.123 119.146 280.263 119.153C280.403 119.157 280.517 119.167 280.604 119.182L280.331 120.807C280.267 120.788 280.149 120.767 279.979 120.744C279.808 120.718 279.632 120.705 279.45 120.705C279.053 120.705 278.683 120.79 278.342 120.96C278.001 121.127 277.715 121.36 277.484 121.659C277.253 121.955 277.104 122.292 277.036 122.67L276.161 128H274.462ZM280.634 128L282.088 119.273H283.787L282.332 128H280.634ZM283.293 117.909C282.997 117.909 282.747 117.811 282.543 117.614C282.342 117.413 282.249 117.174 282.264 116.898C282.279 116.617 282.397 116.379 282.616 116.182C282.836 115.981 283.092 115.881 283.384 115.881C283.679 115.881 283.927 115.981 284.128 116.182C284.329 116.379 284.423 116.617 284.412 116.898C284.397 117.174 284.279 117.413 284.06 117.614C283.844 117.811 283.588 117.909 283.293 117.909ZM287.175 122.818L286.322 128H284.624L286.078 119.273H287.709L287.47 120.693H287.578C287.855 120.227 288.232 119.856 288.709 119.58C289.19 119.299 289.758 119.159 290.413 119.159C291.004 119.159 291.5 119.284 291.902 119.534C292.307 119.78 292.593 120.148 292.76 120.636C292.93 121.125 292.957 121.729 292.839 122.449L291.908 128H290.209L291.101 122.653C291.203 122.021 291.12 121.527 290.851 121.17C290.586 120.811 290.163 120.631 289.584 120.631C289.19 120.631 288.824 120.716 288.487 120.886C288.154 121.057 287.872 121.307 287.641 121.636C287.413 121.962 287.258 122.356 287.175 122.818ZM297.294 131.455C296.597 131.455 296.014 131.364 295.544 131.182C295.078 131 294.711 130.759 294.442 130.46C294.177 130.161 293.993 129.833 293.891 129.477L295.459 128.875C295.535 129.042 295.641 129.218 295.777 129.403C295.913 129.593 296.116 129.754 296.385 129.886C296.658 130.019 297.031 130.085 297.504 130.085C298.148 130.085 298.711 129.928 299.192 129.614C299.673 129.303 299.97 128.807 300.084 128.125L300.351 126.409H300.243C300.114 126.595 299.936 126.801 299.709 127.028C299.482 127.256 299.188 127.453 298.828 127.619C298.468 127.786 298.021 127.869 297.487 127.869C296.798 127.869 296.203 127.708 295.703 127.386C295.207 127.061 294.851 126.581 294.635 125.949C294.419 125.312 294.389 124.53 294.544 123.602C294.696 122.674 294.983 121.879 295.408 121.216C295.836 120.553 296.355 120.045 296.964 119.693C297.578 119.337 298.235 119.159 298.936 119.159C299.478 119.159 299.9 119.25 300.203 119.432C300.51 119.61 300.737 119.818 300.885 120.057C301.033 120.295 301.141 120.506 301.209 120.688H301.334L301.567 119.273H303.232L301.754 128.193C301.633 128.943 301.358 129.559 300.93 130.04C300.506 130.521 299.978 130.877 299.345 131.108C298.716 131.339 298.033 131.455 297.294 131.455ZM298.067 126.46C298.552 126.46 298.983 126.347 299.362 126.119C299.745 125.888 300.063 125.559 300.317 125.131C300.571 124.699 300.747 124.182 300.845 123.58C300.944 122.992 300.938 122.475 300.828 122.028C300.722 121.581 300.516 121.233 300.209 120.983C299.906 120.729 299.51 120.602 299.021 120.602C298.506 120.602 298.059 120.735 297.68 121C297.302 121.261 296.993 121.617 296.754 122.068C296.519 122.519 296.355 123.023 296.26 123.58C296.169 124.152 296.171 124.653 296.266 125.085C296.364 125.517 296.561 125.854 296.857 126.097C297.152 126.339 297.555 126.46 298.067 126.46ZM316.182 119.489C316.186 118.917 316 118.479 315.625 118.176C315.254 117.873 314.735 117.722 314.068 117.722C313.591 117.722 313.165 117.797 312.79 117.949C312.419 118.097 312.116 118.301 311.881 118.562C311.65 118.82 311.508 119.114 311.455 119.443C311.405 119.72 311.43 119.958 311.528 120.159C311.631 120.36 311.777 120.528 311.966 120.665C312.159 120.797 312.371 120.909 312.602 121C312.833 121.087 313.057 121.159 313.273 121.216L314.364 121.511C314.716 121.602 315.074 121.725 315.438 121.881C315.801 122.036 316.129 122.241 316.42 122.494C316.712 122.748 316.93 123.062 317.074 123.438C317.218 123.812 317.246 124.261 317.159 124.784C317.045 125.443 316.778 126.028 316.358 126.54C315.938 127.051 315.383 127.455 314.693 127.75C314.004 128.045 313.205 128.193 312.295 128.193C311.424 128.193 310.691 128.055 310.097 127.778C309.506 127.502 309.072 127.11 308.795 126.602C308.519 126.091 308.42 125.485 308.5 124.784H310.267C310.225 125.205 310.301 125.555 310.494 125.835C310.691 126.112 310.968 126.318 311.324 126.455C311.68 126.587 312.083 126.653 312.534 126.653C313.034 126.653 313.491 126.576 313.903 126.42C314.316 126.261 314.657 126.042 314.926 125.761C315.195 125.477 315.36 125.146 315.42 124.767C315.481 124.422 315.432 124.14 315.273 123.92C315.117 123.701 314.883 123.519 314.568 123.375C314.258 123.231 313.903 123.104 313.506 122.994L312.193 122.619C311.303 122.366 310.629 121.992 310.17 121.5C309.712 121.008 309.547 120.356 309.676 119.545C309.79 118.875 310.07 118.29 310.517 117.79C310.964 117.29 311.521 116.902 312.188 116.625C312.854 116.345 313.578 116.205 314.358 116.205C315.146 116.205 315.816 116.345 316.369 116.625C316.922 116.905 317.331 117.292 317.597 117.784C317.862 118.277 317.955 118.845 317.875 119.489H316.182ZM322.303 128.176C321.473 128.176 320.78 127.987 320.223 127.608C319.666 127.225 319.274 126.691 319.047 126.006C318.823 125.316 318.786 124.515 318.933 123.602C319.077 122.708 319.367 121.928 319.803 121.261C320.242 120.595 320.791 120.078 321.45 119.71C322.113 119.343 322.85 119.159 323.661 119.159C324.49 119.159 325.181 119.35 325.734 119.733C326.291 120.116 326.683 120.652 326.911 121.341C327.138 122.03 327.178 122.833 327.03 123.75C326.886 124.636 326.592 125.413 326.149 126.08C325.71 126.742 325.161 127.258 324.501 127.625C323.842 127.992 323.109 128.176 322.303 128.176ZM322.399 126.75C322.945 126.75 323.42 126.606 323.825 126.318C324.234 126.03 324.568 125.648 324.825 125.17C325.083 124.693 325.259 124.17 325.354 123.602C325.441 123.053 325.439 122.551 325.348 122.097C325.261 121.638 325.071 121.271 324.78 120.994C324.488 120.718 324.083 120.58 323.564 120.58C323.018 120.58 322.539 120.725 322.126 121.017C321.717 121.305 321.384 121.689 321.126 122.17C320.873 122.652 320.7 123.176 320.609 123.744C320.522 124.29 320.522 124.792 320.609 125.25C320.696 125.705 320.886 126.068 321.178 126.341C321.469 126.614 321.876 126.75 322.399 126.75ZM331.858 116.364L329.926 128H328.227L330.159 116.364H331.858ZM338.342 124.381L339.195 119.273H340.899L339.445 128H337.774L338.03 126.489H337.939C337.666 126.955 337.28 127.343 336.78 127.653C336.284 127.96 335.708 128.114 335.053 128.114C334.492 128.114 334.017 127.991 333.626 127.744C333.24 127.494 332.965 127.125 332.803 126.636C332.64 126.148 332.617 125.544 332.734 124.824L333.666 119.273H335.365L334.473 124.619C334.378 125.214 334.467 125.687 334.74 126.04C335.013 126.392 335.411 126.568 335.933 126.568C336.251 126.568 336.581 126.489 336.922 126.33C337.263 126.17 337.564 125.93 337.825 125.608C338.09 125.286 338.263 124.877 338.342 124.381ZM347.256 119.273L347.034 120.636H342.267L342.489 119.273H347.256ZM344.108 117.182H345.807L344.432 125.438C344.379 125.767 344.388 126.015 344.46 126.182C344.532 126.345 344.642 126.456 344.79 126.517C344.941 126.574 345.11 126.602 345.295 126.602C345.432 126.602 345.551 126.593 345.653 126.574C345.756 126.555 345.837 126.54 345.898 126.528L345.989 127.932C345.875 127.97 345.722 128.008 345.528 128.045C345.339 128.087 345.108 128.11 344.835 128.114C344.388 128.121 343.985 128.042 343.625 127.875C343.265 127.705 342.996 127.447 342.818 127.102C342.64 126.754 342.597 126.316 342.688 125.79L344.108 117.182ZM347.68 128L349.135 119.273H350.834L349.379 128H347.68ZM350.339 117.909C350.044 117.909 349.794 117.811 349.589 117.614C349.389 117.413 349.296 117.174 349.311 116.898C349.326 116.617 349.444 116.379 349.663 116.182C349.883 115.981 350.139 115.881 350.43 115.881C350.726 115.881 350.974 115.981 351.175 116.182C351.375 116.379 351.47 116.617 351.459 116.898C351.444 117.174 351.326 117.413 351.107 117.614C350.891 117.811 350.635 117.909 350.339 117.909ZM355.381 128.176C354.551 128.176 353.858 127.987 353.301 127.608C352.744 127.225 352.352 126.691 352.125 126.006C351.902 125.316 351.864 124.515 352.011 123.602C352.155 122.708 352.445 121.928 352.881 121.261C353.32 120.595 353.869 120.078 354.528 119.71C355.191 119.343 355.928 119.159 356.739 119.159C357.568 119.159 358.259 119.35 358.812 119.733C359.369 120.116 359.761 120.652 359.989 121.341C360.216 122.03 360.256 122.833 360.108 123.75C359.964 124.636 359.67 125.413 359.227 126.08C358.788 126.742 358.239 127.258 357.58 127.625C356.92 127.992 356.188 128.176 355.381 128.176ZM355.477 126.75C356.023 126.75 356.498 126.606 356.903 126.318C357.313 126.03 357.646 125.648 357.903 125.17C358.161 124.693 358.337 124.17 358.432 123.602C358.519 123.053 358.517 122.551 358.426 122.097C358.339 121.638 358.15 121.271 357.858 120.994C357.566 120.718 357.161 120.58 356.642 120.58C356.097 120.58 355.617 120.725 355.205 121.017C354.795 121.305 354.462 121.689 354.205 122.17C353.951 122.652 353.778 123.176 353.688 123.744C353.6 124.29 353.6 124.792 353.688 125.25C353.775 125.705 353.964 126.068 354.256 126.341C354.547 126.614 354.955 126.75 355.477 126.75ZM363.862 122.818L363.01 128H361.311L362.766 119.273H364.396L364.158 120.693H364.266C364.542 120.227 364.919 119.856 365.396 119.58C365.877 119.299 366.446 119.159 367.101 119.159C367.692 119.159 368.188 119.284 368.589 119.534C368.995 119.78 369.281 120.148 369.447 120.636C369.618 121.125 369.644 121.729 369.527 122.449L368.595 128H366.896L367.788 122.653C367.891 122.021 367.807 121.527 367.538 121.17C367.273 120.811 366.851 120.631 366.271 120.631C365.877 120.631 365.512 120.716 365.175 120.886C364.841 121.057 364.559 121.307 364.328 121.636C364.101 121.962 363.946 122.356 363.862 122.818Z" fill="#4B382E"/>
</svg>
